<svg xmlns="http://www.w3.org/2000/svg" xmlns:xlink="http://www.w3.org/1999/xlink" viewBox="0 0 690.23 461.78"><defs><style>.cls-1,.cls-6{fill:none;}.cls-2{fill:#1ebec4;}.cls-3{fill:#3d3d3d;}.cls-4{clip-path:url(#clip-path);}.cls-5{fill:#45273c;}.cls-6{stroke:#3d3d3d;stroke-miterlimit:10;stroke-width:1.02px;}</style><clipPath id="clip-path"><circle class="cls-1" cx="480.99" cy="202.77" r="71.1" transform="translate(-2.5 399.5) rotate(-45)"/></clipPath></defs><g id="Layer_2" data-name="Layer 2"><g id="BACKGROUND"><polygon class="cls-2" points="198.8 39.04 189.7 44.29 180.6 49.54 180.6 39.04 180.6 28.53 189.7 33.78 198.8 39.04"/><path class="cls-3" d="M199.06,50.91V27.16L219.63,39Zm1.58-21V48.17L216.47,39Z"/><polygon class="cls-2" points="238.09 39.04 228.99 44.29 219.9 49.54 219.9 39.04 219.9 28.53 228.99 33.78 238.09 39.04"/><path class="cls-3" d="M238.36,50.91V27.16L258.93,39Zm1.58-21V48.17L255.76,39Z"/><polygon class="cls-2" points="277.39 39.04 268.29 44.29 259.19 49.54 259.19 39.04 259.19 28.53 268.29 33.78 277.39 39.04"/><path class="cls-3" d="M277.65,50.91V27.16L298.22,39Zm1.58-21V48.17L295.06,39Z"/><polygon class="cls-2" points="668.05 392.46 680.71 407.63 682.61 406.04 671.27 392.46 682.61 378.87 680.71 377.29 668.05 392.46"/><polygon class="cls-2" points="650.82 392.46 663.49 407.63 665.38 406.04 654.04 392.46 665.38 378.87 663.49 377.29 650.82 392.46"/><polygon class="cls-2" points="633.59 392.46 646.25 407.63 648.15 406.04 636.81 392.46 648.15 378.87 646.25 377.29 633.59 392.46"/><polygon class="cls-2" points="606.83 234.86 631.77 278.06 656.71 321.26 606.83 321.26 556.95 321.26 581.89 278.06 606.83 234.86"/><polygon class="cls-3" points="556.8 299.11 612.27 299.11 609.76 294.76 559.31 294.76 556.8 299.11"/><polygon class="cls-3" points="551.95 307.52 617.12 307.52 614.61 303.17 554.46 303.17 551.95 307.52"/><polygon class="cls-3" points="547.09 315.93 621.98 315.93 619.46 311.57 549.61 311.57 547.09 315.93"/><polygon class="cls-3" points="561.65 290.71 607.41 290.71 604.9 286.35 564.17 286.35 561.65 290.71"/><polygon class="cls-3" points="542.24 324.34 626.83 324.34 624.32 319.98 544.75 319.98 542.24 324.34"/><polygon class="cls-3" points="537.38 332.74 631.68 332.74 629.17 328.39 539.9 328.39 537.38 332.74"/><polygon class="cls-3" points="566.51 282.3 602.56 282.3 600.05 277.94 569.02 277.94 566.51 282.3"/><polygon class="cls-3" points="584.53 251.08 581.07 257.08 588 257.08 584.53 251.08"/><polygon class="cls-3" points="571.36 273.89 597.71 273.89 595.19 269.54 573.88 269.54 571.36 273.89"/><polygon class="cls-3" points="578.73 261.13 576.22 265.49 592.85 265.49 590.34 261.13 578.73 261.13"/><circle class="cls-2" cx="76.61" cy="76.1" r="62.23" transform="translate(-31.38 76.46) rotate(-45)"/><path class="cls-3" d="M5.08,49.3l.07-.56C5.13,48.93,5.1,49.11,5.08,49.3Z"/><path class="cls-3" d="M66.06.2,50.58,111.88a55.66,55.66,0,0,0,6.89.85L72.94,1.24A57.6,57.6,0,0,0,66.06.2Z"/><path class="cls-3" d="M79.23,3,64,112.77a57.59,57.59,0,0,0,7.13-.81L85.86,5.71A55.05,55.05,0,0,0,79.23,3Z"/><path class="cls-3" d="M91.91,9.15l-14,101.14a54.49,54.49,0,0,0,7.41-2.9L98.26,14A58.49,58.49,0,0,0,91.91,9.15Z"/><path class="cls-3" d="M52.46.65,37.6,107.76a56.92,56.92,0,0,0,6.67,2.54L59.56,0A55.26,55.26,0,0,0,52.46.65Z"/><path class="cls-3" d="M104,19.76l-11.6,83.6a55.69,55.69,0,0,0,7.9-6.36l9.56-69A57.11,57.11,0,0,0,104,19.76Z"/><path class="cls-3" d="M117.5,55.1a56.26,56.26,0,0,0-2.67-15.88l-6.7,48.35A56.17,56.17,0,0,0,117.5,55.1Z"/><path class="cls-3" d="M38.34,4.75,25.15,99.93a56.85,56.85,0,0,0,6.38,4.57L45.73,2.09A55,55,0,0,0,38.34,4.75Z"/><path class="cls-3" d="M23.47,14.34l-10,72.36a56,56,0,0,0,5.94,7.74l11.92-86A56.91,56.91,0,0,0,23.47,14.34Z"/><path class="cls-3" d="M5.15,48.74l-.07.56A56.68,56.68,0,0,0,8.32,76.5l7.45-53.73A56.22,56.22,0,0,0,5.15,48.74Z"/><polygon class="cls-2" points="108.6 256.79 90.01 272.31 91.95 274.63 108.6 260.74 125.24 274.63 127.18 272.31 108.6 256.79"/><polygon class="cls-3" points="108.6 235.69 90.01 251.2 91.95 253.53 108.6 239.63 125.24 253.53 127.18 251.2 108.6 235.69"/><polygon class="cls-2" points="108.6 214.58 90.01 230.1 91.95 232.42 108.6 218.53 125.24 232.42 127.18 230.1 108.6 214.58"/><path class="cls-3" d="M108.82,165.19a18.6,18.6,0,1,0,18.6,18.6A18.62,18.62,0,0,0,108.82,165.19Zm0,34.18a15.58,15.58,0,1,1,15.58-15.58A15.6,15.6,0,0,1,108.82,199.37Z"/><polygon class="cls-3" points="179.77 168.74 159.07 168.74 159.07 164.68 175.71 164.68 175.71 146 194.39 146 194.39 126.08 211.82 126.08 211.82 107.41 230.49 107.41 230.49 89.52 234.56 89.52 234.56 111.47 215.88 111.47 215.88 130.15 198.45 130.15 198.45 150.07 179.77 150.07 179.77 168.74"/><polygon class="cls-2" points="404.7 461.78 383.99 461.78 383.99 457.71 400.63 457.71 400.63 439.04 419.31 439.04 419.31 419.12 436.74 419.12 436.74 400.44 455.42 400.44 455.42 382.55 459.48 382.55 459.48 404.5 440.81 404.5 440.81 423.18 423.37 423.18 423.37 443.1 404.7 443.1 404.7 461.78"/><path class="cls-2" d="M15.43,272.68A11.72,11.72,0,0,1,12,281l-4.31-4.31a5.67,5.67,0,0,0,0-8l-.88-.88a11.79,11.79,0,0,1,0-16.64l.88-.88a5.68,5.68,0,0,0,0-8l-1.76-1.76a11.76,11.76,0,0,1,0-16.63,5.67,5.67,0,0,0,0-8L5,215a11.76,11.76,0,0,1,0-16.63l.91-.91a5.68,5.68,0,0,0,0-8L3.9,187.33a11.81,11.81,0,0,1-.08-16.48L5,169.7a5.7,5.7,0,0,0-.06-8l-1-1,4.31-4.31,1,1A11.8,11.8,0,0,1,9.31,174L8.19,175.1a5.69,5.69,0,0,0,0,7.94l2.07,2.09a11.8,11.8,0,0,1,0,16.6l-.91.91a5.66,5.66,0,0,0,0,8l.88.88a11.76,11.76,0,0,1,0,16.64,5.67,5.67,0,0,0,0,8L12,238a11.76,11.76,0,0,1,0,16.63l-.88.88a5.68,5.68,0,0,0,0,8l.88.88A11.73,11.73,0,0,1,15.43,272.68Z"/><path class="cls-3" d="M34.73,272.68A11.72,11.72,0,0,1,31.29,281L27,276.68a5.67,5.67,0,0,0,0-8l-.88-.88a11.78,11.78,0,0,1,0-16.64l.88-.88a5.68,5.68,0,0,0,0-8l-1.76-1.76a11.76,11.76,0,0,1,0-16.63,5.67,5.67,0,0,0,0-8l-.88-.88a11.76,11.76,0,0,1,0-16.63l.91-.91a5.68,5.68,0,0,0,0-8l-2.06-2.09a11.81,11.81,0,0,1-.08-16.48l1.12-1.15a5.69,5.69,0,0,0,0-8l-1-1,4.31-4.31,1,1A11.81,11.81,0,0,1,28.61,174l-1.12,1.15a5.69,5.69,0,0,0,0,7.94l2.07,2.09a11.79,11.79,0,0,1,0,16.6l-.91.91a5.66,5.66,0,0,0,0,8l.88.88a11.78,11.78,0,0,1,0,16.64,5.67,5.67,0,0,0,0,8L31.29,238a11.76,11.76,0,0,1,0,16.63l-.88.88a5.68,5.68,0,0,0,0,8l.88.88A11.73,11.73,0,0,1,34.73,272.68Z"/><rect class="cls-2" x="188.65" y="258.54" width="53.2" height="53.2"/><path class="cls-3" d="M234.64,306.24H179.38V251h55.26Zm-53.2-2.06h51.14V253H181.44Z"/><rect class="cls-2" x="647.37" y="426.52" width="16.11" height="16.11" transform="translate(811.59 1205.32) rotate(-135)"/><path class="cls-3" d="M644.15,434.5l-11.29,11.3-11.3-11.3,11.3-11.3ZM632.86,445l10.45-10.45-10.45-10.45L622.4,434.5Z"/><path class="cls-3" d="M688.49,434.5,677.2,445.8l-11.3-11.3,11.3-11.3ZM677.2,445l10.45-10.45L677.2,424.05,666.74,434.5Z"/><rect class="cls-2" x="602" y="426.52" width="16.11" height="16.11" transform="translate(734.15 1173.24) rotate(-135)"/><path class="cls-3" d="M598.79,434.5l-11.3,11.3L576.2,434.5l11.29-11.3ZM587.49,445,598,434.5l-10.46-10.45L577,434.5Z"/><rect class="cls-2" x="503" y="24.63" width="59.99" height="59.99" transform="translate(955.85 -274.4) rotate(136.26)"/><path class="cls-3" d="M500.74,52.55l45-43.08,43.08,45-45,43.08Zm44.94-39.8L504,52.62l39.87,41.66,41.66-39.87Z"/><path class="cls-3" d="M477.26,52.55l45-43.08,43.08,45-45,43.08Zm44.94-39.8L480.54,52.62l39.87,41.66,41.66-39.87Z"/><rect class="cls-2" x="61.56" y="428.26" width="3.05" height="11.68" transform="translate(-199.26 785.66) rotate(-135)"/><rect class="cls-2" x="61.56" y="428.26" width="3.05" height="11.68" transform="translate(414.64 696.45) rotate(135)"/><rect class="cls-2" x="61.56" y="406.55" width="3.05" height="11.68" transform="translate(-183.91 748.6) rotate(-135)"/><rect class="cls-2" x="61.56" y="406.55" width="3.05" height="11.68" transform="translate(399.29 659.39) rotate(135)"/><rect class="cls-2" x="61.56" y="384.84" width="3.05" height="11.68" transform="translate(-168.56 711.53) rotate(-135)"/><rect class="cls-2" x="61.56" y="384.84" width="3.05" height="11.68" transform="translate(383.94 622.31) rotate(135)"/><rect class="cls-2" x="61.56" y="363.13" width="3.05" height="11.68" transform="translate(-153.21 674.47) rotate(-135)"/><rect class="cls-2" x="61.56" y="363.13" width="3.05" height="11.68" transform="translate(368.59 585.25) rotate(135)"/><rect class="cls-2" x="61.56" y="341.41" width="3.05" height="11.68" transform="translate(-137.85 637.41) rotate(-135)"/><rect class="cls-2" x="61.56" y="341.41" width="3.05" height="11.68" transform="translate(353.23 548.2) rotate(135)"/><rect class="cls-2" x="83.4" y="428.26" width="3.05" height="11.68" transform="translate(-161.98 801.11) rotate(-135)"/><rect class="cls-2" x="83.4" y="428.26" width="3.05" height="11.68" transform="translate(451.91 681.01) rotate(135)"/><rect class="cls-2" x="83.4" y="406.55" width="3.05" height="11.68" transform="translate(-146.63 764.04) rotate(-135)"/><rect class="cls-2" x="83.4" y="406.55" width="3.05" height="11.68" transform="translate(436.56 643.95) rotate(135)"/><rect class="cls-2" x="83.4" y="384.84" width="3.05" height="11.68" transform="translate(-131.28 726.97) rotate(-135)"/><rect class="cls-2" x="83.4" y="384.84" width="3.05" height="11.68" transform="translate(421.22 606.88) rotate(135)"/><rect class="cls-2" x="83.4" y="363.13" width="3.05" height="11.68" transform="translate(-115.93 689.91) rotate(-135)"/><rect class="cls-2" x="83.4" y="363.13" width="3.05" height="11.68" transform="translate(405.86 569.82) rotate(135)"/><rect class="cls-2" x="83.4" y="341.41" width="3.05" height="11.68" transform="translate(-100.57 652.85) rotate(-135)"/><rect class="cls-2" x="83.4" y="341.41" width="3.05" height="11.68" transform="translate(390.51 532.76) rotate(135)"/><rect class="cls-2" x="103.71" y="428.26" width="3.05" height="11.68" transform="translate(-127.3 815.47) rotate(-135)"/><rect class="cls-2" x="103.71" y="428.26" width="3.05" height="11.68" transform="translate(486.6 666.64) rotate(135)"/><rect class="cls-2" x="103.71" y="406.55" width="3.05" height="11.68" transform="translate(-111.95 778.41) rotate(-135)"/><rect class="cls-2" x="103.71" y="406.55" width="3.05" height="11.68" transform="translate(471.25 629.58) rotate(135)"/><rect class="cls-2" x="103.71" y="384.84" width="3.05" height="11.68" transform="translate(-96.61 741.34) rotate(-135)"/><rect class="cls-2" x="103.71" y="384.84" width="3.05" height="11.68" transform="translate(455.9 592.51) rotate(135)"/><rect class="cls-2" x="103.71" y="363.13" width="3.05" height="11.68" transform="translate(-81.25 704.28) rotate(-135)"/><rect class="cls-2" x="103.71" y="363.13" width="3.05" height="11.68" transform="translate(440.55 555.45) rotate(135)"/><rect class="cls-2" x="103.71" y="341.41" width="3.05" height="11.68" transform="translate(-65.89 667.22) rotate(-135)"/><rect class="cls-2" x="103.71" y="341.41" width="3.05" height="11.68" transform="translate(425.19 518.39) rotate(135)"/><g class="cls-4"><rect class="cls-2" x="359.68" y="247.16" width="1.82" height="6.97" transform="translate(-71.57 328.68) rotate(-45.04)"/><rect class="cls-2" x="359.68" y="247.16" width="1.82" height="6.97" transform="translate(438.62 682.81) rotate(-135.04)"/><rect class="cls-2" x="372.63" y="247.15" width="1.82" height="6.97" transform="translate(-67.77 337.82) rotate(-45.04)"/><rect class="cls-2" x="372.63" y="247.15" width="1.82" height="6.97" transform="translate(460.76 691.94) rotate(-135.04)"/><rect class="cls-2" x="385.59" y="247.15" width="1.82" height="6.97" transform="translate(-63.95 347.02) rotate(-45.04)"/><rect class="cls-2" x="385.59" y="247.15" width="1.82" height="6.97" transform="translate(482.85 701.09) rotate(-135.04)"/><rect class="cls-2" x="398.54" y="247.14" width="1.82" height="6.97" transform="translate(-60.15 356.16) rotate(-45.04)"/><rect class="cls-2" x="398.54" y="247.14" width="1.82" height="6.97" transform="translate(504.99 710.22) rotate(-135.04)"/><rect class="cls-2" x="411.49" y="247.13" width="1.82" height="6.97" transform="translate(-56.35 365.32) rotate(-45.04)"/><rect class="cls-2" x="411.49" y="247.13" width="1.82" height="6.97" transform="translate(527.11 719.36) rotate(-135.04)"/><rect class="cls-2" x="359.69" y="260.19" width="1.82" height="6.97" transform="translate(-80.78 332.5) rotate(-45.04)"/><rect class="cls-2" x="359.69" y="260.19" width="1.82" height="6.97" transform="translate(429.43 705.06) rotate(-135.04)"/><rect class="cls-2" x="372.64" y="260.18" width="1.82" height="6.97" transform="translate(-76.98 341.67) rotate(-45.04)"/><rect class="cls-2" x="372.64" y="260.18" width="1.82" height="6.97" transform="translate(451.57 714.2) rotate(-135.04)"/><rect class="cls-2" x="385.6" y="260.17" width="1.82" height="6.97" transform="translate(-73.17 350.83) rotate(-45.04)"/><rect class="cls-2" x="385.6" y="260.17" width="1.82" height="6.97" transform="translate(473.67 723.34) rotate(-135.04)"/><rect class="cls-2" x="398.55" y="260.17" width="1.82" height="6.97" transform="translate(-69.36 360.01) rotate(-45.04)"/><rect class="cls-2" x="398.55" y="260.17" width="1.82" height="6.97" transform="translate(495.78 732.48) rotate(-135.04)"/><rect class="cls-2" x="411.5" y="260.16" width="1.82" height="6.97" transform="translate(-65.56 369.16) rotate(-45.04)"/><rect class="cls-2" x="411.5" y="260.16" width="1.82" height="6.97" transform="translate(517.92 741.61) rotate(-135.04)"/><rect class="cls-2" x="359.7" y="272.31" width="1.82" height="6.97" transform="translate(-89.36 336.08) rotate(-45.04)"/><rect class="cls-2" x="359.7" y="272.31" width="1.82" height="6.97" transform="translate(420.88 725.76) rotate(-135.04)"/><rect class="cls-2" x="372.65" y="272.3" width="1.82" height="6.97" transform="translate(-85.55 345.23) rotate(-45.04)"/><rect class="cls-2" x="372.65" y="272.3" width="1.82" height="6.97" transform="translate(443 734.9) rotate(-135.04)"/><rect class="cls-2" x="385.6" y="272.29" width="1.82" height="6.97" transform="translate(-81.75 354.39) rotate(-45.04)"/><rect class="cls-2" x="385.6" y="272.29" width="1.82" height="6.97" transform="translate(465.12 744.04) rotate(-135.04)"/><rect class="cls-2" x="398.56" y="272.29" width="1.82" height="6.97" transform="translate(-77.94 363.57) rotate(-45.04)"/><rect class="cls-2" x="398.56" y="272.29" width="1.82" height="6.97" transform="translate(487.23 753.18) rotate(-135.04)"/><rect class="cls-2" x="411.51" y="272.28" width="1.82" height="6.97" transform="translate(-74.14 372.7) rotate(-45.04)"/><rect class="cls-2" x="411.51" y="272.28" width="1.82" height="6.97" transform="translate(509.39 762.31) rotate(-135.04)"/><rect class="cls-2" x="359.66" y="208.57" width="1.82" height="6.97" transform="translate(-44.27 317.33) rotate(-45.04)"/><rect class="cls-2" x="359.66" y="208.57" width="1.82" height="6.97" transform="translate(465.85 616.88) rotate(-135.04)"/><rect class="cls-2" x="372.61" y="208.56" width="1.82" height="6.97" transform="translate(-40.46 326.51) rotate(-45.04)"/><rect class="cls-2" x="372.61" y="208.56" width="1.82" height="6.97" transform="translate(487.96 626.02) rotate(-135.04)"/><rect class="cls-2" x="385.56" y="208.55" width="1.82" height="6.97" transform="translate(-36.66 335.64) rotate(-45.04)"/><rect class="cls-2" x="385.56" y="208.55" width="1.82" height="6.97" transform="translate(510.1 635.16) rotate(-135.04)"/><rect class="cls-2" x="398.51" y="208.54" width="1.82" height="6.97" transform="translate(-32.85 344.82) rotate(-45.04)"/><rect class="cls-2" x="398.51" y="208.54" width="1.82" height="6.97" transform="translate(532.24 644.29) rotate(-135.04)"/><rect class="cls-2" x="411.47" y="208.53" width="1.82" height="6.97" transform="translate(-29.04 354) rotate(-45.04)"/><rect class="cls-2" x="411.47" y="208.53" width="1.82" height="6.97" transform="translate(554.33 653.44) rotate(-135.04)"/><rect class="cls-2" x="359.66" y="221.59" width="1.82" height="6.97" transform="translate(-53.48 321.16) rotate(-45.04)"/><rect class="cls-2" x="359.66" y="221.59" width="1.82" height="6.97" transform="translate(456.66 639.13) rotate(-135.04)"/><rect class="cls-2" x="372.62" y="221.59" width="1.82" height="6.97" transform="translate(-49.68 330.31) rotate(-45.04)"/><rect class="cls-2" x="372.62" y="221.59" width="1.82" height="6.97" transform="translate(478.78 648.27) rotate(-135.04)"/><rect class="cls-2" x="385.57" y="221.58" width="1.82" height="6.97" transform="translate(-45.87 339.49) rotate(-45.04)"/><rect class="cls-2" x="385.57" y="221.58" width="1.82" height="6.97" transform="translate(500.91 657.41) rotate(-135.04)"/><rect class="cls-2" x="398.52" y="221.57" width="1.82" height="6.97" transform="translate(-42.06 348.65) rotate(-45.04)"/><rect class="cls-2" x="398.52" y="221.57" width="1.82" height="6.97" transform="translate(523.03 666.55) rotate(-135.04)"/><rect class="cls-2" x="411.48" y="221.56" width="1.82" height="6.97" transform="translate(-38.26 357.81) rotate(-45.04)"/><rect class="cls-2" x="411.48" y="221.56" width="1.82" height="6.97" transform="translate(545.15 675.69) rotate(-135.04)"/><rect class="cls-2" x="359.67" y="233.71" width="1.82" height="6.97" transform="translate(-62.06 324.71) rotate(-45.04)"/><rect class="cls-2" x="359.67" y="233.71" width="1.82" height="6.97" transform="translate(448.11 659.84) rotate(-135.04)"/><rect class="cls-2" x="372.63" y="233.71" width="1.82" height="6.97" transform="translate(-58.25 333.87) rotate(-45.04)"/><rect class="cls-2" x="372.63" y="233.71" width="1.82" height="6.97" transform="translate(470.25 668.97) rotate(-135.04)"/><rect class="cls-2" x="385.58" y="233.7" width="1.82" height="6.97" transform="translate(-54.44 343.07) rotate(-45.04)"/><rect class="cls-2" x="385.58" y="233.7" width="1.82" height="6.97" transform="translate(492.34 678.12) rotate(-135.04)"/><rect class="cls-2" x="398.53" y="233.69" width="1.82" height="6.97" transform="translate(-50.64 352.21) rotate(-45.04)"/><rect class="cls-2" x="398.53" y="233.69" width="1.82" height="6.97" transform="translate(514.48 687.25) rotate(-135.04)"/><rect class="cls-2" x="411.48" y="233.68" width="1.82" height="6.97" transform="translate(-46.83 361.37) rotate(-45.04)"/><rect class="cls-2" x="411.48" y="233.68" width="1.82" height="6.97" transform="translate(536.6 696.39) rotate(-135.04)"/><rect class="cls-2" x="359.63" y="169.97" width="1.82" height="6.97" transform="translate(-16.96 306.01) rotate(-45.04)"/><rect class="cls-2" x="359.63" y="169.97" width="1.82" height="6.97" transform="translate(493.06 550.96) rotate(-135.04)"/><rect class="cls-2" x="372.58" y="169.96" width="1.82" height="6.97" transform="translate(-13.16 315.16) rotate(-45.04)"/><rect class="cls-2" x="372.58" y="169.96" width="1.82" height="6.97" transform="translate(515.2 560.09) rotate(-135.04)"/><rect class="cls-2" x="385.54" y="169.95" width="1.82" height="6.97" transform="translate(-9.35 324.32) rotate(-45.04)"/><rect class="cls-2" x="385.54" y="169.95" width="1.82" height="6.97" transform="translate(537.33 569.23) rotate(-135.04)"/><rect class="cls-2" x="398.49" y="169.94" width="1.82" height="6.97" transform="translate(-5.54 333.5) rotate(-45.04)"/><rect class="cls-2" x="398.49" y="169.94" width="1.82" height="6.97" transform="translate(559.44 578.38) rotate(-135.04)"/><rect class="cls-2" x="411.44" y="169.93" width="1.82" height="6.97" transform="translate(-1.75 342.63) rotate(-45.04)"/><rect class="cls-2" x="411.44" y="169.93" width="1.82" height="6.97" transform="translate(581.59 587.5) rotate(-135.04)"/><rect class="cls-2" x="359.64" y="183" width="1.82" height="6.97" transform="translate(-26.18 309.82) rotate(-45.04)"/><rect class="cls-2" x="359.64" y="183" width="1.82" height="6.97" transform="translate(483.89 573.21) rotate(-135.04)"/><rect class="cls-2" x="372.59" y="182.99" width="1.82" height="6.97" transform="translate(-22.37 319) rotate(-45.04)"/><rect class="cls-2" x="372.59" y="182.99" width="1.82" height="6.97" transform="translate(506 582.35) rotate(-135.04)"/><rect class="cls-2" x="385.55" y="182.98" width="1.82" height="6.97" transform="translate(-18.57 328.15) rotate(-45.04)"/><rect class="cls-2" x="385.55" y="182.98" width="1.82" height="6.97" transform="translate(528.14 591.49) rotate(-135.04)"/><rect class="cls-2" x="398.5" y="182.97" width="1.82" height="6.97" transform="translate(-14.77 337.29) rotate(-45.04)"/><rect class="cls-2" x="398.5" y="182.97" width="1.82" height="6.97" transform="translate(550.27 600.62) rotate(-135.04)"/><rect class="cls-2" x="411.45" y="182.96" width="1.82" height="6.97" transform="translate(-10.95 346.49) rotate(-45.04)"/><rect class="cls-2" x="411.45" y="182.96" width="1.82" height="6.97" transform="translate(572.38 609.76) rotate(-135.04)"/><rect class="cls-2" x="359.65" y="195.12" width="1.82" height="6.97" transform="translate(-34.75 313.38) rotate(-45.04)"/><rect class="cls-2" x="359.65" y="195.12" width="1.82" height="6.97" transform="translate(475.34 593.91) rotate(-135.04)"/><rect class="cls-2" x="372.6" y="195.11" width="1.82" height="6.97" transform="translate(-30.94 322.56) rotate(-45.04)"/><rect class="cls-2" x="372.6" y="195.11" width="1.82" height="6.97" transform="translate(497.45 603.05) rotate(-135.04)"/><rect class="cls-2" x="385.55" y="195.1" width="1.82" height="6.97" transform="translate(-27.15 331.69) rotate(-45.04)"/><rect class="cls-2" x="385.55" y="195.1" width="1.82" height="6.97" transform="translate(519.6 612.18) rotate(-135.04)"/><rect class="cls-2" x="398.51" y="195.09" width="1.82" height="6.97" transform="translate(-23.33 340.87) rotate(-45.04)"/><rect class="cls-2" x="398.51" y="195.09" width="1.82" height="6.97" transform="translate(541.72 621.32) rotate(-135.04)"/><rect class="cls-2" x="411.46" y="195.08" width="1.82" height="6.97" transform="translate(-19.52 350.05) rotate(-45.04)"/><rect class="cls-2" x="411.46" y="195.08" width="1.82" height="6.97" transform="translate(563.83 630.46) rotate(-135.04)"/><rect class="cls-2" x="359.61" y="131.37" width="1.82" height="6.97" transform="translate(10.33 294.64) rotate(-45.04)"/><rect class="cls-2" x="359.61" y="131.37" width="1.82" height="6.97" transform="translate(520.32 485.02) rotate(-135.04)"/><rect class="cls-2" x="372.56" y="131.36" width="1.82" height="6.97" transform="translate(14.15 303.81) rotate(-45.04)"/><rect class="cls-2" x="372.56" y="131.36" width="1.82" height="6.97" transform="translate(542.45 494.16) rotate(-135.04)"/><rect class="cls-2" x="385.51" y="131.35" width="1.82" height="6.97" transform="translate(17.96 312.99) rotate(-45.04)"/><rect class="cls-2" x="385.51" y="131.35" width="1.82" height="6.97" transform="translate(564.54 503.31) rotate(-135.04)"/><rect class="cls-2" x="398.46" y="131.35" width="1.82" height="6.97" transform="translate(21.76 322.14) rotate(-45.04)"/><rect class="cls-2" x="398.46" y="131.35" width="1.82" height="6.97" transform="translate(586.68 512.44) rotate(-135.04)"/><rect class="cls-2" x="411.42" y="131.34" width="1.82" height="6.97" transform="translate(25.56 331.3) rotate(-45.04)"/><rect class="cls-2" x="411.42" y="131.34" width="1.82" height="6.97" transform="translate(608.81 521.58) rotate(-135.04)"/><rect class="cls-2" x="359.61" y="144.4" width="1.82" height="6.97" transform="translate(1.13 298.49) rotate(-45.04)"/><rect class="cls-2" x="359.61" y="144.4" width="1.82" height="6.97" transform="translate(511.12 507.28) rotate(-135.04)"/><rect class="cls-2" x="372.57" y="144.39" width="1.82" height="6.97" transform="translate(4.93 307.64) rotate(-45.04)"/><rect class="cls-2" x="372.57" y="144.39" width="1.82" height="6.97" transform="translate(533.24 516.42) rotate(-135.04)"/><rect class="cls-2" x="385.52" y="144.38" width="1.82" height="6.97" transform="translate(8.74 316.81) rotate(-45.04)"/><rect class="cls-2" x="385.52" y="144.38" width="1.82" height="6.97" transform="translate(555.37 525.56) rotate(-135.04)"/><rect class="cls-2" x="398.47" y="144.37" width="1.82" height="6.97" transform="translate(12.55 325.98) rotate(-45.04)"/><rect class="cls-2" x="398.47" y="144.37" width="1.82" height="6.97" transform="translate(577.49 534.7) rotate(-135.04)"/><rect class="cls-2" x="411.43" y="144.37" width="1.82" height="6.97" transform="translate(16.34 335.12) rotate(-45.04)"/><rect class="cls-2" x="411.43" y="144.37" width="1.82" height="6.97" transform="translate(599.61 543.84) rotate(-135.04)"/><rect class="cls-2" x="359.62" y="156.52" width="1.82" height="6.97" transform="translate(-7.44 302.06) rotate(-45.04)"/><rect class="cls-2" x="359.62" y="156.52" width="1.82" height="6.97" transform="translate(502.57 527.98) rotate(-135.04)"/><rect class="cls-2" x="372.57" y="156.51" width="1.82" height="6.97" transform="translate(-3.64 311.21) rotate(-45.04)"/><rect class="cls-2" x="372.57" y="156.51" width="1.82" height="6.97" transform="translate(524.69 537.12) rotate(-135.04)"/><rect class="cls-2" x="385.53" y="156.5" width="1.82" height="6.97" transform="translate(0.16 320.37) rotate(-45.04)"/><rect class="cls-2" x="385.53" y="156.5" width="1.82" height="6.97" transform="translate(546.82 546.26) rotate(-135.04)"/><rect class="cls-2" x="398.48" y="156.49" width="1.82" height="6.97" transform="translate(3.97 329.53) rotate(-45.04)"/><rect class="cls-2" x="398.48" y="156.49" width="1.82" height="6.97" transform="translate(568.94 555.4) rotate(-135.04)"/><rect class="cls-2" x="411.43" y="156.49" width="1.82" height="6.97" transform="translate(7.77 338.68) rotate(-45.04)"/><rect class="cls-2" x="411.43" y="156.49" width="1.82" height="6.97" transform="translate(591.08 564.53) rotate(-135.04)"/><rect class="cls-2" x="425.2" y="247.12" width="1.82" height="6.97" transform="translate(-52.31 375.04) rotate(-45.04)"/><rect class="cls-2" x="425.2" y="247.12" width="1.82" height="6.97" transform="translate(550.5 729.03) rotate(-135.04)"/><rect class="cls-2" x="438.15" y="247.11" width="1.82" height="6.97" transform="translate(-48.52 384.16) rotate(-45.04)"/><rect class="cls-2" x="438.15" y="247.11" width="1.82" height="6.97" transform="translate(572.64 738.17) rotate(-135.04)"/><rect class="cls-2" x="451.1" y="247.1" width="1.82" height="6.97" transform="translate(-44.71 393.32) rotate(-45.04)"/><rect class="cls-2" x="451.1" y="247.1" width="1.82" height="6.97" transform="translate(594.79 747.3) rotate(-135.04)"/><rect class="cls-2" x="464.05" y="247.09" width="1.82" height="6.97" transform="translate(-40.9 402.52) rotate(-45.04)"/><rect class="cls-2" x="464.05" y="247.09" width="1.82" height="6.97" transform="translate(616.87 756.45) rotate(-135.04)"/><rect class="cls-2" x="477.01" y="247.09" width="1.82" height="6.97" transform="translate(-37.1 411.67) rotate(-45.04)"/><rect class="cls-2" x="477.01" y="247.09" width="1.82" height="6.97" transform="translate(639.01 765.58) rotate(-135.04)"/><rect class="cls-2" x="425.2" y="260.15" width="1.82" height="6.97" transform="translate(-61.54 378.83) rotate(-45.04)"/><rect class="cls-2" x="425.2" y="260.15" width="1.82" height="6.97" transform="translate(541.33 751.28) rotate(-135.04)"/><rect class="cls-2" x="438.16" y="260.14" width="1.82" height="6.97" transform="translate(-57.73 388.01) rotate(-45.04)"/><rect class="cls-2" x="438.16" y="260.14" width="1.82" height="6.97" transform="translate(563.45 760.42) rotate(-135.04)"/><rect class="cls-2" x="451.11" y="260.13" width="1.82" height="6.97" transform="translate(-53.92 397.17) rotate(-45.04)"/><rect class="cls-2" x="451.11" y="260.13" width="1.82" height="6.97" transform="translate(585.57 769.56) rotate(-135.04)"/><rect class="cls-2" x="464.06" y="260.12" width="1.82" height="6.97" transform="translate(-50.12 406.34) rotate(-45.04)"/><rect class="cls-2" x="464.06" y="260.12" width="1.82" height="6.97" transform="translate(607.7 778.7) rotate(-135.04)"/><rect class="cls-2" x="477.02" y="260.11" width="1.82" height="6.97" transform="translate(-46.31 415.52) rotate(-45.04)"/><rect class="cls-2" x="477.02" y="260.11" width="1.82" height="6.97" transform="translate(629.8 787.84) rotate(-135.04)"/><rect class="cls-2" x="425.21" y="272.27" width="1.82" height="6.97" transform="translate(-70.11 382.39) rotate(-45.04)"/><rect class="cls-2" x="425.21" y="272.27" width="1.82" height="6.97" transform="translate(532.8 771.98) rotate(-135.04)"/><rect class="cls-2" x="438.17" y="272.26" width="1.82" height="6.97" transform="translate(-66.3 391.59) rotate(-45.04)"/><rect class="cls-2" x="438.17" y="272.26" width="1.82" height="6.97" transform="translate(554.88 781.12) rotate(-135.04)"/><rect class="cls-2" x="451.12" y="272.25" width="1.82" height="6.97" transform="translate(-62.5 400.73) rotate(-45.04)"/><rect class="cls-2" x="451.12" y="272.25" width="1.82" height="6.97" transform="translate(577.02 790.26) rotate(-135.04)"/><rect class="cls-2" x="464.07" y="272.24" width="1.82" height="6.97" transform="translate(-58.69 409.9) rotate(-45.04)"/><rect class="cls-2" x="464.07" y="272.24" width="1.82" height="6.97" transform="translate(599.15 799.4) rotate(-135.04)"/><rect class="cls-2" x="477.02" y="272.23" width="1.82" height="6.97" transform="translate(-54.88 419.08) rotate(-45.04)"/><rect class="cls-2" x="477.02" y="272.23" width="1.82" height="6.97" transform="translate(621.25 808.54) rotate(-135.04)"/><rect class="cls-2" x="425.17" y="208.52" width="1.82" height="6.97" transform="translate(-25.02 363.68) rotate(-45.04)"/><rect class="cls-2" x="425.17" y="208.52" width="1.82" height="6.97" transform="translate(577.75 663.1) rotate(-135.04)"/><rect class="cls-2" x="438.12" y="208.51" width="1.82" height="6.97" transform="translate(-21.21 372.84) rotate(-45.04)"/><rect class="cls-2" x="438.12" y="208.51" width="1.82" height="6.97" transform="translate(599.87 672.24) rotate(-135.04)"/><rect class="cls-2" x="451.08" y="208.51" width="1.82" height="6.97" transform="translate(-17.4 382.02) rotate(-45.04)"/><rect class="cls-2" x="451.08" y="208.51" width="1.82" height="6.97" transform="translate(621.98 681.39) rotate(-135.04)"/><rect class="cls-2" x="464.03" y="208.5" width="1.82" height="6.97" transform="translate(-13.6 391.15) rotate(-45.04)"/><rect class="cls-2" x="464.03" y="208.5" width="1.82" height="6.97" transform="translate(644.14 690.51) rotate(-135.04)"/><rect class="cls-2" x="476.98" y="208.49" width="1.82" height="6.97" transform="translate(-9.79 400.33) rotate(-45.04)"/><rect class="cls-2" x="476.98" y="208.49" width="1.82" height="6.97" transform="translate(666.26 699.65) rotate(-135.04)"/><rect class="cls-2" x="425.18" y="221.55" width="1.82" height="6.97" transform="translate(-34.23 367.52) rotate(-45.04)"/><rect class="cls-2" x="425.18" y="221.55" width="1.82" height="6.97" transform="translate(568.54 685.36) rotate(-135.04)"/><rect class="cls-2" x="438.13" y="221.54" width="1.82" height="6.97" transform="translate(-30.43 376.67) rotate(-45.04)"/><rect class="cls-2" x="438.13" y="221.54" width="1.82" height="6.97" transform="translate(590.68 694.49) rotate(-135.04)"/><rect class="cls-2" x="451.08" y="221.53" width="1.82" height="6.97" transform="translate(-26.63 385.81) rotate(-45.04)"/><rect class="cls-2" x="451.08" y="221.53" width="1.82" height="6.97" transform="translate(612.82 703.63) rotate(-135.04)"/><rect class="cls-2" x="464.04" y="221.53" width="1.82" height="6.97" transform="translate(-22.81 395.01) rotate(-45.04)"/><rect class="cls-2" x="464.04" y="221.53" width="1.82" height="6.97" transform="translate(634.93 712.77) rotate(-135.04)"/><rect class="cls-2" x="476.99" y="221.52" width="1.82" height="6.97" transform="translate(-19.01 404.16) rotate(-45.04)"/><rect class="cls-2" x="476.99" y="221.52" width="1.82" height="6.97" transform="translate(657.05 721.91) rotate(-135.04)"/><rect class="cls-2" x="425.19" y="233.67" width="1.82" height="6.97" transform="translate(-42.8 371.09) rotate(-45.04)"/><rect class="cls-2" x="425.19" y="233.67" width="1.82" height="6.97" transform="translate(559.99 706.06) rotate(-135.04)"/><rect class="cls-2" x="438.14" y="233.66" width="1.82" height="6.97" transform="translate(-39 380.21) rotate(-45.04)"/><rect class="cls-2" x="438.14" y="233.66" width="1.82" height="6.97" transform="translate(582.15 715.19) rotate(-135.04)"/><rect class="cls-2" x="451.09" y="233.65" width="1.82" height="6.97" transform="translate(-35.19 389.39) rotate(-45.04)"/><rect class="cls-2" x="451.09" y="233.65" width="1.82" height="6.97" transform="translate(604.27 724.33) rotate(-135.04)"/><rect class="cls-2" x="464.05" y="233.65" width="1.82" height="6.97" transform="translate(-31.38 398.57) rotate(-45.04)"/><rect class="cls-2" x="464.05" y="233.65" width="1.82" height="6.97" transform="translate(626.36 733.48) rotate(-135.04)"/><rect class="cls-2" x="477" y="233.64" width="1.82" height="6.97" transform="translate(-27.58 407.72) rotate(-45.04)"/><rect class="cls-2" x="477" y="233.64" width="1.82" height="6.97" transform="translate(648.5 742.61) rotate(-135.04)"/><rect class="cls-2" x="425.14" y="169.93" width="1.82" height="6.97" transform="translate(2.29 352.34) rotate(-45.04)"/><rect class="cls-2" x="425.14" y="169.93" width="1.82" height="6.97" transform="translate(605 597.17) rotate(-135.04)"/><rect class="cls-2" x="438.1" y="169.92" width="1.82" height="6.97" transform="translate(6.1 361.52) rotate(-45.04)"/><rect class="cls-2" x="438.1" y="169.92" width="1.82" height="6.97" transform="translate(627.09 606.32) rotate(-135.04)"/><rect class="cls-2" x="451.05" y="169.91" width="1.82" height="6.97" transform="translate(9.9 370.66) rotate(-45.04)"/><rect class="cls-2" x="451.05" y="169.91" width="1.82" height="6.97" transform="translate(649.23 615.45) rotate(-135.04)"/><rect class="cls-2" x="464" y="169.9" width="1.82" height="6.97" transform="translate(13.7 379.82) rotate(-45.04)"/><rect class="cls-2" x="464" y="169.9" width="1.82" height="6.97" transform="translate(671.35 624.59) rotate(-135.04)"/><rect class="cls-2" x="476.96" y="169.89" width="1.82" height="6.97" transform="translate(17.51 388.99) rotate(-45.04)"/><rect class="cls-2" x="476.96" y="169.89" width="1.82" height="6.97" transform="translate(693.46 633.74) rotate(-135.04)"/><rect class="cls-2" x="425.15" y="182.95" width="1.82" height="6.97" transform="translate(-6.93 356.16) rotate(-45.04)"/><rect class="cls-2" x="425.15" y="182.95" width="1.82" height="6.97" transform="translate(595.79 619.43) rotate(-135.04)"/><rect class="cls-2" x="438.11" y="182.95" width="1.82" height="6.97" transform="translate(-3.12 365.33) rotate(-45.04)"/><rect class="cls-2" x="438.11" y="182.95" width="1.82" height="6.97" transform="translate(617.91 628.57) rotate(-135.04)"/><rect class="cls-2" x="451.06" y="182.94" width="1.82" height="6.97" transform="translate(0.69 374.51) rotate(-45.04)"/><rect class="cls-2" x="451.06" y="182.94" width="1.82" height="6.97" transform="translate(640.02 637.71) rotate(-135.04)"/><rect class="cls-2" x="464.01" y="182.93" width="1.82" height="6.97" transform="translate(4.48 383.63) rotate(-45.04)"/><rect class="cls-2" x="464.01" y="182.93" width="1.82" height="6.97" transform="translate(662.16 646.84) rotate(-135.04)"/><rect class="cls-2" x="476.96" y="182.92" width="1.82" height="6.97" transform="translate(8.29 392.8) rotate(-45.04)"/><rect class="cls-2" x="476.96" y="182.92" width="1.82" height="6.97" transform="translate(684.3 655.97) rotate(-135.04)"/><rect class="cls-2" x="425.16" y="195.07" width="1.82" height="6.97" transform="translate(-15.5 359.73) rotate(-45.04)"/><rect class="cls-2" x="425.16" y="195.07" width="1.82" height="6.97" transform="translate(587.24 640.13) rotate(-135.04)"/><rect class="cls-2" x="438.11" y="195.06" width="1.82" height="6.97" transform="translate(-11.7 368.89) rotate(-45.04)"/><rect class="cls-2" x="438.11" y="195.06" width="1.82" height="6.97" transform="translate(609.36 649.27) rotate(-135.04)"/><rect class="cls-2" x="451.07" y="195.06" width="1.82" height="6.97" transform="translate(-7.89 378.05) rotate(-45.04)"/><rect class="cls-2" x="451.07" y="195.06" width="1.82" height="6.97" transform="translate(631.47 658.41) rotate(-135.04)"/><rect class="cls-2" x="464.02" y="195.05" width="1.82" height="6.97" transform="translate(-4.09 387.19) rotate(-45.04)"/><rect class="cls-2" x="464.02" y="195.05" width="1.82" height="6.97" transform="translate(653.63 667.54) rotate(-135.04)"/><rect class="cls-2" x="476.97" y="195.04" width="1.82" height="6.97" transform="translate(-0.28 396.38) rotate(-45.04)"/><rect class="cls-2" x="476.97" y="195.04" width="1.82" height="6.97" transform="translate(675.74 676.68) rotate(-135.04)"/><rect class="cls-2" x="425.12" y="131.33" width="1.82" height="6.97" transform="translate(29.6 341.01) rotate(-45.04)"/><rect class="cls-2" x="425.12" y="131.33" width="1.82" height="6.97" transform="translate(632.2 531.26) rotate(-135.04)"/><rect class="cls-2" x="438.07" y="131.32" width="1.82" height="6.97" transform="translate(33.39 350.14) rotate(-45.04)"/><rect class="cls-2" x="438.07" y="131.32" width="1.82" height="6.97" transform="translate(654.35 540.38) rotate(-135.04)"/><rect class="cls-2" x="451.02" y="131.31" width="1.82" height="6.97" transform="translate(37.2 359.32) rotate(-45.04)"/><rect class="cls-2" x="451.02" y="131.31" width="1.82" height="6.97" transform="translate(676.46 549.53) rotate(-135.04)"/><rect class="cls-2" x="463.98" y="131.3" width="1.82" height="6.97" transform="translate(41.02 368.5) rotate(-45.04)"/><rect class="cls-2" x="463.98" y="131.3" width="1.82" height="6.97" transform="translate(698.58 558.66) rotate(-135.04)"/><rect class="cls-2" x="476.93" y="131.29" width="1.82" height="6.97" transform="translate(44.81 377.65) rotate(-45.04)"/><rect class="cls-2" x="476.93" y="131.29" width="1.82" height="6.97" transform="translate(720.71 567.8) rotate(-135.04)"/><rect class="cls-2" x="425.13" y="144.36" width="1.82" height="6.97" transform="translate(20.37 344.81) rotate(-45.04)"/><rect class="cls-2" x="425.13" y="144.36" width="1.82" height="6.97" transform="translate(623.03 553.5) rotate(-135.04)"/><rect class="cls-2" x="438.08" y="144.35" width="1.82" height="6.97" transform="translate(24.19 354) rotate(-45.04)"/><rect class="cls-2" x="438.08" y="144.35" width="1.82" height="6.97" transform="translate(645.14 562.64) rotate(-135.04)"/><rect class="cls-2" x="451.03" y="144.34" width="1.82" height="6.97" transform="translate(27.99 363.15) rotate(-45.04)"/><rect class="cls-2" x="451.03" y="144.34" width="1.82" height="6.97" transform="translate(667.27 571.78) rotate(-135.04)"/><rect class="cls-2" x="463.99" y="144.33" width="1.82" height="6.97" transform="translate(31.79 372.31) rotate(-45.04)"/><rect class="cls-2" x="463.99" y="144.33" width="1.82" height="6.97" transform="translate(689.39 580.92) rotate(-135.04)"/><rect class="cls-2" x="476.94" y="144.32" width="1.82" height="6.97" transform="translate(35.61 381.49) rotate(-45.04)"/><rect class="cls-2" x="476.94" y="144.32" width="1.82" height="6.97" transform="translate(711.51 590.06) rotate(-135.04)"/><rect class="cls-2" x="425.14" y="156.48" width="1.82" height="6.97" transform="translate(11.8 348.39) rotate(-45.04)"/><rect class="cls-2" x="425.14" y="156.48" width="1.82" height="6.97" transform="translate(614.48 574.2) rotate(-135.04)"/><rect class="cls-2" x="438.09" y="156.47" width="1.82" height="6.97" transform="translate(15.61 357.56) rotate(-45.04)"/><rect class="cls-2" x="438.09" y="156.47" width="1.82" height="6.97" transform="translate(636.59 583.34) rotate(-135.04)"/><rect class="cls-2" x="451.04" y="156.46" width="1.82" height="6.97" transform="translate(19.41 366.71) rotate(-45.04)"/><rect class="cls-2" x="451.04" y="156.46" width="1.82" height="6.97" transform="translate(658.72 592.48) rotate(-135.04)"/><rect class="cls-2" x="463.99" y="156.45" width="1.82" height="6.97" transform="translate(23.22 375.87) rotate(-45.04)"/><rect class="cls-2" x="463.99" y="156.45" width="1.82" height="6.97" transform="translate(680.84 601.62) rotate(-135.04)"/><rect class="cls-2" x="476.95" y="156.44" width="1.82" height="6.97" transform="translate(27.02 385.03) rotate(-45.04)"/><rect class="cls-2" x="476.95" y="156.44" width="1.82" height="6.97" transform="translate(702.98 610.75) rotate(-135.04)"/><rect class="cls-2" x="488.68" y="247.08" width="1.82" height="6.97" transform="translate(-33.67 419.92) rotate(-45.04)"/><rect class="cls-2" x="488.68" y="247.08" width="1.82" height="6.97" transform="translate(658.93 773.82) rotate(-135.04)"/><rect class="cls-2" x="501.63" y="247.07" width="1.82" height="6.97" transform="translate(-29.86 429.09) rotate(-45.04)"/><rect class="cls-2" x="501.63" y="247.07" width="1.82" height="6.97" transform="translate(681.07 782.95) rotate(-135.04)"/><rect class="cls-2" x="514.58" y="247.06" width="1.82" height="6.97" transform="translate(-26.05 438.27) rotate(-45.04)"/><rect class="cls-2" x="514.58" y="247.06" width="1.82" height="6.97" transform="translate(703.2 792.09) rotate(-135.04)"/><rect class="cls-2" x="527.54" y="247.05" width="1.82" height="6.97" transform="translate(-22.25 447.41) rotate(-45.04)"/><rect class="cls-2" x="527.54" y="247.05" width="1.82" height="6.97" transform="translate(725.3 801.24) rotate(-135.04)"/><rect class="cls-2" x="540.49" y="247.04" width="1.82" height="6.97" transform="translate(-18.45 456.55) rotate(-45.04)"/><rect class="cls-2" x="540.49" y="247.04" width="1.82" height="6.97" transform="translate(747.47 810.36) rotate(-135.04)"/><rect class="cls-2" x="488.69" y="260.11" width="1.82" height="6.97" transform="translate(-42.88 423.77) rotate(-45.04)"/><rect class="cls-2" x="488.69" y="260.11" width="1.82" height="6.97" transform="translate(649.76 796.07) rotate(-135.04)"/><rect class="cls-2" x="501.64" y="260.1" width="1.82" height="6.97" transform="translate(-39.08 432.92) rotate(-45.04)"/><rect class="cls-2" x="501.64" y="260.1" width="1.82" height="6.97" transform="translate(671.86 805.21) rotate(-135.04)"/><rect class="cls-2" x="514.59" y="260.09" width="1.82" height="6.97" transform="translate(-35.27 442.08) rotate(-45.04)"/><rect class="cls-2" x="514.59" y="260.09" width="1.82" height="6.97" transform="translate(694.01 814.35) rotate(-135.04)"/><rect class="cls-2" x="527.55" y="260.08" width="1.82" height="6.97" transform="translate(-31.47 451.24) rotate(-45.04)"/><rect class="cls-2" x="527.55" y="260.08" width="1.82" height="6.97" transform="translate(716.15 823.48) rotate(-135.04)"/><rect class="cls-2" x="540.5" y="260.07" width="1.82" height="6.97" transform="translate(-27.66 460.4) rotate(-45.04)"/><rect class="cls-2" x="540.5" y="260.07" width="1.82" height="6.97" transform="translate(738.25 832.62) rotate(-135.04)"/><rect class="cls-2" x="488.69" y="272.23" width="1.82" height="6.97" transform="translate(-51.45 427.33) rotate(-45.04)"/><rect class="cls-2" x="488.69" y="272.23" width="1.82" height="6.97" transform="translate(641.21 816.77) rotate(-135.04)"/><rect class="cls-2" x="501.65" y="272.22" width="1.82" height="6.97" transform="translate(-47.65 436.48) rotate(-45.04)"/><rect class="cls-2" x="501.65" y="272.22" width="1.82" height="6.97" transform="translate(663.31 825.91) rotate(-135.04)"/><rect class="cls-2" x="514.6" y="272.21" width="1.82" height="6.97" transform="translate(-43.85 445.62) rotate(-45.04)"/><rect class="cls-2" x="514.6" y="272.21" width="1.82" height="6.97" transform="translate(685.48 835.04) rotate(-135.04)"/><rect class="cls-2" x="527.55" y="272.2" width="1.82" height="6.97" transform="translate(-40.04 454.8) rotate(-45.04)"/><rect class="cls-2" x="527.55" y="272.2" width="1.82" height="6.97" transform="translate(707.6 844.18) rotate(-135.04)"/><rect class="cls-2" x="540.51" y="272.19" width="1.82" height="6.97" transform="translate(-36.23 463.96) rotate(-45.04)"/><rect class="cls-2" x="540.51" y="272.19" width="1.82" height="6.97" transform="translate(729.68 853.33) rotate(-135.04)"/><rect class="cls-2" x="488.65" y="208.48" width="1.82" height="6.97" transform="translate(-6.37 408.56) rotate(-45.04)"/><rect class="cls-2" x="488.65" y="208.48" width="1.82" height="6.97" transform="translate(686.2 707.88) rotate(-135.04)"/><rect class="cls-2" x="501.61" y="208.47" width="1.82" height="6.97" transform="translate(-2.56 417.75) rotate(-45.04)"/><rect class="cls-2" x="501.61" y="208.47" width="1.82" height="6.97" transform="translate(708.32 717.02) rotate(-135.04)"/><rect class="cls-2" x="514.56" y="208.46" width="1.82" height="6.97" transform="translate(1.25 426.91) rotate(-45.04)"/><rect class="cls-2" x="514.56" y="208.46" width="1.82" height="6.97" transform="translate(730.41 726.17) rotate(-135.04)"/><rect class="cls-2" x="527.51" y="208.45" width="1.82" height="6.97" transform="translate(5.05 436.07) rotate(-45.04)"/><rect class="cls-2" x="527.51" y="208.45" width="1.82" height="6.97" transform="translate(752.55 735.3) rotate(-135.04)"/><rect class="cls-2" x="540.46" y="208.45" width="1.82" height="6.97" transform="translate(8.86 445.24) rotate(-45.04)"/><rect class="cls-2" x="540.46" y="208.45" width="1.82" height="6.97" transform="translate(774.68 744.44) rotate(-135.04)"/><rect class="cls-2" x="488.66" y="221.51" width="1.82" height="6.97" transform="translate(-15.58 412.41) rotate(-45.04)"/><rect class="cls-2" x="488.66" y="221.51" width="1.82" height="6.97" transform="translate(676.99 730.14) rotate(-135.04)"/><rect class="cls-2" x="501.61" y="221.5" width="1.82" height="6.97" transform="translate(-11.77 421.57) rotate(-45.04)"/><rect class="cls-2" x="501.61" y="221.5" width="1.82" height="6.97" transform="translate(699.11 739.28) rotate(-135.04)"/><rect class="cls-2" x="514.57" y="221.49" width="1.82" height="6.97" transform="translate(-7.97 430.74) rotate(-45.04)"/><rect class="cls-2" x="514.57" y="221.49" width="1.82" height="6.97" transform="translate(721.24 748.42) rotate(-135.04)"/><rect class="cls-2" x="527.52" y="221.48" width="1.82" height="6.97" transform="translate(-4.16 439.9) rotate(-45.04)"/><rect class="cls-2" x="527.52" y="221.48" width="1.82" height="6.97" transform="translate(743.34 757.57) rotate(-135.04)"/><rect class="cls-2" x="540.47" y="221.47" width="1.82" height="6.97" transform="translate(-0.36 449.04) rotate(-45.04)"/><rect class="cls-2" x="540.47" y="221.47" width="1.82" height="6.97" transform="translate(765.48 766.7) rotate(-135.04)"/><rect class="cls-2" x="488.67" y="233.63" width="1.82" height="6.97" transform="translate(-24.15 415.97) rotate(-45.04)"/><rect class="cls-2" x="488.67" y="233.63" width="1.82" height="6.97" transform="translate(668.42 750.85) rotate(-135.04)"/><rect class="cls-2" x="501.62" y="233.62" width="1.82" height="6.97" transform="translate(-20.35 425.14) rotate(-45.04)"/><rect class="cls-2" x="501.62" y="233.62" width="1.82" height="6.97" transform="translate(690.56 759.98) rotate(-135.04)"/><rect class="cls-2" x="514.57" y="233.61" width="1.82" height="6.97" transform="translate(-16.54 434.3) rotate(-45.04)"/><rect class="cls-2" x="514.57" y="233.61" width="1.82" height="6.97" transform="translate(712.69 769.12) rotate(-135.04)"/><rect class="cls-2" x="527.53" y="233.6" width="1.82" height="6.97" transform="translate(-12.74 443.44) rotate(-45.04)"/><rect class="cls-2" x="527.53" y="233.6" width="1.82" height="6.97" transform="translate(734.79 778.27) rotate(-135.04)"/><rect class="cls-2" x="540.48" y="233.59" width="1.82" height="6.97" transform="translate(-8.94 452.6) rotate(-45.04)"/><rect class="cls-2" x="540.48" y="233.59" width="1.82" height="6.97" transform="translate(756.95 787.39) rotate(-135.04)"/><rect class="cls-2" x="488.63" y="169.88" width="1.82" height="6.97" transform="translate(20.94 397.24) rotate(-45.04)"/><rect class="cls-2" x="488.63" y="169.88" width="1.82" height="6.97" transform="translate(713.41 641.96) rotate(-135.04)"/><rect class="cls-2" x="501.58" y="169.87" width="1.82" height="6.97" transform="translate(24.74 406.39) rotate(-45.04)"/><rect class="cls-2" x="501.58" y="169.87" width="1.82" height="6.97" transform="translate(735.52 651.11) rotate(-135.04)"/><rect class="cls-2" x="514.53" y="169.87" width="1.82" height="6.97" transform="translate(28.54 415.55) rotate(-45.04)"/><rect class="cls-2" x="514.53" y="169.87" width="1.82" height="6.97" transform="translate(757.68 660.23) rotate(-135.04)"/><rect class="cls-2" x="527.49" y="169.86" width="1.82" height="6.97" transform="translate(32.36 424.73) rotate(-45.04)"/><rect class="cls-2" x="527.49" y="169.86" width="1.82" height="6.97" transform="translate(779.78 669.38) rotate(-135.04)"/><rect class="cls-2" x="540.44" y="169.85" width="1.82" height="6.97" transform="translate(36.17 433.91) rotate(-45.04)"/><rect class="cls-2" x="540.44" y="169.85" width="1.82" height="6.97" transform="translate(801.89 678.53) rotate(-135.04)"/><rect class="cls-2" x="488.64" y="182.91" width="1.82" height="6.97" transform="translate(11.72 401.07) rotate(-45.04)"/><rect class="cls-2" x="488.64" y="182.91" width="1.82" height="6.97" transform="translate(704.22 664.22) rotate(-135.04)"/><rect class="cls-2" x="501.59" y="182.9" width="1.82" height="6.97" transform="translate(15.52 410.21) rotate(-45.04)"/><rect class="cls-2" x="501.59" y="182.9" width="1.82" height="6.97" transform="translate(726.36 673.35) rotate(-135.04)"/><rect class="cls-2" x="514.54" y="182.89" width="1.82" height="6.97" transform="translate(19.34 419.4) rotate(-45.04)"/><rect class="cls-2" x="514.54" y="182.89" width="1.82" height="6.97" transform="translate(748.45 682.5) rotate(-135.04)"/><rect class="cls-2" x="527.49" y="182.89" width="1.82" height="6.97" transform="translate(23.14 428.56) rotate(-45.04)"/><rect class="cls-2" x="527.49" y="182.89" width="1.82" height="6.97" transform="translate(770.59 691.63) rotate(-135.04)"/><rect class="cls-2" x="540.45" y="182.88" width="1.82" height="6.97" transform="translate(26.95 437.72) rotate(-45.04)"/><rect class="cls-2" x="540.45" y="182.88" width="1.82" height="6.97" transform="translate(792.71 700.77) rotate(-135.04)"/><rect class="cls-2" x="488.64" y="195.03" width="1.82" height="6.97" transform="translate(3.14 404.61) rotate(-45.04)"/><rect class="cls-2" x="488.64" y="195.03" width="1.82" height="6.97" transform="translate(695.69 684.91) rotate(-135.04)"/><rect class="cls-2" x="501.6" y="195.02" width="1.82" height="6.97" transform="translate(6.96 413.79) rotate(-45.04)"/><rect class="cls-2" x="501.6" y="195.02" width="1.82" height="6.97" transform="translate(717.81 694.05) rotate(-135.04)"/><rect class="cls-2" x="514.55" y="195.01" width="1.82" height="6.97" transform="translate(10.77 422.98) rotate(-45.04)"/><rect class="cls-2" x="514.55" y="195.01" width="1.82" height="6.97" transform="translate(739.9 703.2) rotate(-135.04)"/><rect class="cls-2" x="527.5" y="195.01" width="1.82" height="6.97" transform="translate(14.57 432.12) rotate(-45.04)"/><rect class="cls-2" x="527.5" y="195.01" width="1.82" height="6.97" transform="translate(762.04 712.33) rotate(-135.04)"/><rect class="cls-2" x="540.45" y="195" width="1.82" height="6.97" transform="translate(18.37 441.28) rotate(-45.04)"/><rect class="cls-2" x="540.45" y="195" width="1.82" height="6.97" transform="translate(784.16 721.47) rotate(-135.04)"/><rect class="cls-2" x="488.6" y="131.29" width="1.82" height="6.97" transform="translate(48.25 385.92) rotate(-45.04)"/><rect class="cls-2" x="488.6" y="131.29" width="1.82" height="6.97" transform="translate(740.62 576.05) rotate(-135.04)"/><rect class="cls-2" x="501.55" y="131.28" width="1.82" height="6.97" transform="translate(52.05 395.06) rotate(-45.04)"/><rect class="cls-2" x="501.55" y="131.28" width="1.82" height="6.97" transform="translate(762.77 585.18) rotate(-135.04)"/><rect class="cls-2" x="514.51" y="131.27" width="1.82" height="6.97" transform="translate(55.85 404.23) rotate(-45.04)"/><rect class="cls-2" x="514.51" y="131.27" width="1.82" height="6.97" transform="translate(784.89 594.31) rotate(-135.04)"/><rect class="cls-2" x="527.46" y="131.26" width="1.82" height="6.97" transform="translate(59.66 413.39) rotate(-45.04)"/><rect class="cls-2" x="527.46" y="131.26" width="1.82" height="6.97" transform="translate(807.01 603.45) rotate(-135.04)"/><rect class="cls-2" x="540.41" y="131.25" width="1.82" height="6.97" transform="translate(63.47 422.55) rotate(-45.04)"/><rect class="cls-2" x="540.41" y="131.25" width="1.82" height="6.97" transform="translate(829.16 612.58) rotate(-135.04)"/><rect class="cls-2" x="488.61" y="144.31" width="1.82" height="6.97" transform="translate(39.03 389.73) rotate(-45.04)"/><rect class="cls-2" x="488.61" y="144.31" width="1.82" height="6.97" transform="translate(731.45 598.29) rotate(-135.04)"/><rect class="cls-2" x="501.56" y="144.31" width="1.82" height="6.97" transform="translate(42.84 398.91) rotate(-45.04)"/><rect class="cls-2" x="501.56" y="144.31" width="1.82" height="6.97" transform="translate(753.55 607.44) rotate(-135.04)"/><rect class="cls-2" x="514.52" y="144.3" width="1.82" height="6.97" transform="translate(46.63 408.04) rotate(-45.04)"/><rect class="cls-2" x="514.52" y="144.3" width="1.82" height="6.97" transform="translate(775.7 616.57) rotate(-135.04)"/><rect class="cls-2" x="527.47" y="144.29" width="1.82" height="6.97" transform="translate(50.44 417.22) rotate(-45.04)"/><rect class="cls-2" x="527.47" y="144.29" width="1.82" height="6.97" transform="translate(797.84 625.69) rotate(-135.04)"/><rect class="cls-2" x="540.42" y="144.28" width="1.82" height="6.97" transform="translate(54.26 426.4) rotate(-45.04)"/><rect class="cls-2" x="540.42" y="144.28" width="1.82" height="6.97" transform="translate(819.93 634.86) rotate(-135.04)"/><rect class="cls-2" x="488.62" y="156.43" width="1.82" height="6.97" transform="translate(30.45 393.29) rotate(-45.04)"/><rect class="cls-2" x="488.62" y="156.43" width="1.82" height="6.97" transform="translate(722.9 618.99) rotate(-135.04)"/><rect class="cls-2" x="501.57" y="156.43" width="1.82" height="6.97" transform="translate(34.26 402.45) rotate(-45.04)"/><rect class="cls-2" x="501.57" y="156.43" width="1.82" height="6.97" transform="translate(745 628.14) rotate(-135.04)"/><rect class="cls-2" x="514.52" y="156.42" width="1.82" height="6.97" transform="translate(38.06 411.6) rotate(-45.04)"/><rect class="cls-2" x="514.52" y="156.42" width="1.82" height="6.97" transform="translate(767.17 637.26) rotate(-135.04)"/><rect class="cls-2" x="527.48" y="156.41" width="1.82" height="6.97" transform="translate(41.87 420.78) rotate(-45.04)"/><rect class="cls-2" x="527.48" y="156.41" width="1.82" height="6.97" transform="translate(789.27 646.41) rotate(-135.04)"/><rect class="cls-2" x="540.43" y="156.4" width="1.82" height="6.97" transform="translate(45.69 429.96) rotate(-45.04)"/><rect class="cls-2" x="540.43" y="156.4" width="1.82" height="6.97" transform="translate(811.38 655.56) rotate(-135.04)"/><rect class="cls-2" x="554.19" y="247.03" width="1.82" height="6.97" transform="translate(-14.41 466.29) rotate(-45.04)"/><rect class="cls-2" x="554.19" y="247.03" width="1.82" height="6.97" transform="translate(770.87 820.03) rotate(-135.04)"/><rect class="cls-2" x="567.14" y="247.03" width="1.82" height="6.97" transform="translate(-10.61 475.43) rotate(-45.04)"/><rect class="cls-2" x="567.14" y="247.03" width="1.82" height="6.97" transform="translate(792.95 829.18) rotate(-135.04)"/><rect class="cls-2" x="580.1" y="247.02" width="1.82" height="6.97" transform="translate(-6.8 484.59) rotate(-45.04)"/><rect class="cls-2" x="580.1" y="247.02" width="1.82" height="6.97" transform="translate(815.1 838.31) rotate(-135.04)"/><rect class="cls-2" x="593.05" y="247.01" width="1.82" height="6.97" transform="translate(-2.99 493.78) rotate(-45.04)"/><rect class="cls-2" x="593.05" y="247.01" width="1.82" height="6.97" transform="translate(837.22 847.45) rotate(-135.04)"/><rect class="cls-2" x="606" y="247" width="1.82" height="6.97" transform="translate(0.8 502.89) rotate(-45.04)"/><rect class="cls-2" x="606" y="247" width="1.82" height="6.97" transform="translate(859.32 856.6) rotate(-135.04)"/><rect class="cls-2" x="554.2" y="260.06" width="1.82" height="6.97" transform="translate(-23.63 470.1) rotate(-45.04)"/><rect class="cls-2" x="554.2" y="260.06" width="1.82" height="6.97" transform="translate(761.66 842.29) rotate(-135.04)"/><rect class="cls-2" x="567.15" y="260.05" width="1.82" height="6.97" transform="translate(-19.82 479.28) rotate(-45.04)"/><rect class="cls-2" x="567.15" y="260.05" width="1.82" height="6.97" transform="translate(783.78 851.43) rotate(-135.04)"/><rect class="cls-2" x="580.11" y="260.05" width="1.82" height="6.97" transform="translate(-16.02 488.42) rotate(-45.04)"/><rect class="cls-2" x="580.11" y="260.05" width="1.82" height="6.97" transform="translate(805.88 860.57) rotate(-135.04)"/><rect class="cls-2" x="593.06" y="260.04" width="1.82" height="6.97" transform="translate(-12.22 497.56) rotate(-45.04)"/><rect class="cls-2" x="593.06" y="260.04" width="1.82" height="6.97" transform="translate(828.03 869.71) rotate(-135.04)"/><rect class="cls-2" x="606.01" y="260.03" width="1.82" height="6.97" transform="translate(-8.41 506.75) rotate(-45.04)"/><rect class="cls-2" x="606.01" y="260.03" width="1.82" height="6.97" transform="translate(850.18 878.83) rotate(-135.04)"/><rect class="cls-2" x="554.21" y="272.18" width="1.82" height="6.97" transform="translate(-32.21 473.66) rotate(-45.04)"/><rect class="cls-2" x="554.21" y="272.18" width="1.82" height="6.97" transform="translate(753.11 862.99) rotate(-135.04)"/><rect class="cls-2" x="567.16" y="272.17" width="1.82" height="6.97" transform="translate(-28.39 482.84) rotate(-45.04)"/><rect class="cls-2" x="567.16" y="272.17" width="1.82" height="6.97" transform="translate(775.23 872.13) rotate(-135.04)"/><rect class="cls-2" x="580.11" y="272.17" width="1.82" height="6.97" transform="translate(-24.6 491.96) rotate(-45.04)"/><rect class="cls-2" x="580.11" y="272.17" width="1.82" height="6.97" transform="translate(797.33 881.27) rotate(-135.04)"/><rect class="cls-2" x="593.07" y="272.16" width="1.82" height="6.97" transform="translate(-20.8 501.12) rotate(-45.04)"/><rect class="cls-2" x="593.07" y="272.16" width="1.82" height="6.97" transform="translate(819.5 890.4) rotate(-135.04)"/><rect class="cls-2" x="606.02" y="272.15" width="1.82" height="6.97" transform="translate(-16.98 510.31) rotate(-45.04)"/><rect class="cls-2" x="606.02" y="272.15" width="1.82" height="6.97" transform="translate(841.6 899.54) rotate(-135.04)"/><rect class="cls-2" x="554.17" y="208.44" width="1.82" height="6.97" transform="translate(12.89 454.93) rotate(-45.04)"/><rect class="cls-2" x="554.17" y="208.44" width="1.82" height="6.97" transform="translate(798.06 754.12) rotate(-135.04)"/><rect class="cls-2" x="567.12" y="208.43" width="1.82" height="6.97" transform="translate(16.68 464.06) rotate(-45.04)"/><rect class="cls-2" x="567.12" y="208.43" width="1.82" height="6.97" transform="translate(820.23 763.24) rotate(-135.04)"/><rect class="cls-2" x="580.07" y="208.42" width="1.82" height="6.97" transform="translate(20.5 473.25) rotate(-45.04)"/><rect class="cls-2" x="580.07" y="208.42" width="1.82" height="6.97" transform="translate(842.33 772.39) rotate(-135.04)"/><rect class="cls-2" x="593.02" y="208.41" width="1.82" height="6.97" transform="translate(24.31 482.42) rotate(-45.04)"/><rect class="cls-2" x="593.02" y="208.41" width="1.82" height="6.97" transform="translate(864.43 781.54) rotate(-135.04)"/><rect class="cls-2" x="605.98" y="208.4" width="1.82" height="6.97" transform="translate(28.11 491.58) rotate(-45.04)"/><rect class="cls-2" x="605.98" y="208.4" width="1.82" height="6.97" transform="translate(886.58 790.66) rotate(-135.04)"/><rect class="cls-2" x="554.17" y="221.47" width="1.82" height="6.97" transform="translate(3.67 458.75) rotate(-45.04)"/><rect class="cls-2" x="554.17" y="221.47" width="1.82" height="6.97" transform="translate(788.91 776.36) rotate(-135.04)"/><rect class="cls-2" x="567.13" y="221.46" width="1.82" height="6.97" transform="translate(7.48 467.92) rotate(-45.04)"/><rect class="cls-2" x="567.13" y="221.46" width="1.82" height="6.97" transform="translate(811.01 785.5) rotate(-135.04)"/><rect class="cls-2" x="580.08" y="221.45" width="1.82" height="6.97" transform="translate(11.28 477.08) rotate(-45.04)"/><rect class="cls-2" x="580.08" y="221.45" width="1.82" height="6.97" transform="translate(833.14 794.64) rotate(-135.04)"/><rect class="cls-2" x="593.03" y="221.44" width="1.82" height="6.97" transform="translate(15.09 486.24) rotate(-45.04)"/><rect class="cls-2" x="593.03" y="221.44" width="1.82" height="6.97" transform="translate(855.26 803.78) rotate(-135.04)"/><rect class="cls-2" x="605.99" y="221.43" width="1.82" height="6.97" transform="translate(18.89 495.4) rotate(-45.04)"/><rect class="cls-2" x="605.99" y="221.43" width="1.82" height="6.97" transform="translate(877.36 812.93) rotate(-135.04)"/><rect class="cls-2" x="554.18" y="233.59" width="1.82" height="6.97" transform="translate(-4.9 462.32) rotate(-45.04)"/><rect class="cls-2" x="554.18" y="233.59" width="1.82" height="6.97" transform="translate(780.36 797.06) rotate(-135.04)"/><rect class="cls-2" x="567.14" y="233.58" width="1.82" height="6.97" transform="translate(-1.1 471.48) rotate(-45.04)"/><rect class="cls-2" x="567.14" y="233.58" width="1.82" height="6.97" transform="translate(802.44 806.21) rotate(-135.04)"/><rect class="cls-2" x="580.09" y="233.57" width="1.82" height="6.97" transform="translate(2.71 480.64) rotate(-45.04)"/><rect class="cls-2" x="580.09" y="233.57" width="1.82" height="6.97" transform="translate(824.59 815.34) rotate(-135.04)"/><rect class="cls-2" x="593.04" y="233.56" width="1.82" height="6.97" transform="translate(6.52 489.8) rotate(-45.04)"/><rect class="cls-2" x="593.04" y="233.56" width="1.82" height="6.97" transform="translate(846.71 824.48) rotate(-135.04)"/><rect class="cls-2" x="605.99" y="233.55" width="1.82" height="6.97" transform="translate(10.32 498.97) rotate(-45.04)"/><rect class="cls-2" x="605.99" y="233.55" width="1.82" height="6.97" transform="translate(868.83 833.62) rotate(-135.04)"/><rect class="cls-2" x="554.14" y="169.84" width="1.82" height="6.97" transform="translate(40.19 443.59) rotate(-45.04)"/><rect class="cls-2" x="554.14" y="169.84" width="1.82" height="6.97" transform="translate(825.31 688.18) rotate(-135.04)"/><rect class="cls-2" x="567.09" y="169.83" width="1.82" height="6.97" transform="translate(44 452.75) rotate(-45.04)"/><rect class="cls-2" x="567.09" y="169.83" width="1.82" height="6.97" transform="translate(847.44 697.32) rotate(-135.04)"/><rect class="cls-2" x="580.05" y="169.82" width="1.82" height="6.97" transform="translate(47.79 461.89) rotate(-45.04)"/><rect class="cls-2" x="580.05" y="169.82" width="1.82" height="6.97" transform="translate(869.54 706.47) rotate(-135.04)"/><rect class="cls-2" x="593" y="169.81" width="1.82" height="6.97" transform="translate(51.61 471.07) rotate(-45.04)"/><rect class="cls-2" x="593" y="169.81" width="1.82" height="6.97" transform="translate(891.7 715.59) rotate(-135.04)"/><rect class="cls-2" x="605.95" y="169.81" width="1.82" height="6.97" transform="translate(55.41 480.24) rotate(-45.04)"/><rect class="cls-2" x="605.95" y="169.81" width="1.82" height="6.97" transform="translate(913.81 724.74) rotate(-135.04)"/><rect class="cls-2" x="554.15" y="182.87" width="1.82" height="6.97" transform="translate(30.97 447.41) rotate(-45.04)"/><rect class="cls-2" x="554.15" y="182.87" width="1.82" height="6.97" transform="translate(816.1 710.45) rotate(-135.04)"/><rect class="cls-2" x="567.1" y="182.86" width="1.82" height="6.97" transform="translate(34.77 456.56) rotate(-45.04)"/><rect class="cls-2" x="567.1" y="182.86" width="1.82" height="6.97" transform="translate(838.24 719.58) rotate(-135.04)"/><rect class="cls-2" x="580.06" y="182.85" width="1.82" height="6.97" transform="translate(38.57 465.72) rotate(-45.04)"/><rect class="cls-2" x="580.05" y="182.85" width="1.82" height="6.97" transform="translate(860.39 728.7) rotate(-135.04)"/><rect class="cls-2" x="593.01" y="182.84" width="1.82" height="6.97" transform="translate(42.4 474.92) rotate(-45.04)"/><rect class="cls-2" x="593.01" y="182.84" width="1.82" height="6.97" transform="translate(882.47 737.87) rotate(-135.04)"/><rect class="cls-2" x="605.96" y="182.83" width="1.82" height="6.97" transform="translate(46.2 484.06) rotate(-45.04)"/><rect class="cls-2" x="605.96" y="182.83" width="1.82" height="6.97" transform="translate(904.61 746.99) rotate(-135.04)"/><rect class="cls-2" x="554.16" y="194.99" width="1.82" height="6.97" transform="translate(22.4 450.97) rotate(-45.04)"/><rect class="cls-2" x="554.16" y="194.99" width="1.82" height="6.97" transform="translate(807.55 731.15) rotate(-135.04)"/><rect class="cls-2" x="567.11" y="194.98" width="1.82" height="6.97" transform="translate(26.2 460.12) rotate(-45.04)"/><rect class="cls-2" x="567.11" y="194.98" width="1.82" height="6.97" transform="translate(829.71 740.27) rotate(-135.04)"/><rect class="cls-2" x="580.06" y="194.97" width="1.82" height="6.97" transform="translate(30.01 469.3) rotate(-45.04)"/><rect class="cls-2" x="580.06" y="194.97" width="1.82" height="6.97" transform="translate(851.82 749.41) rotate(-135.04)"/><rect class="cls-2" x="593.02" y="194.96" width="1.82" height="6.97" transform="translate(33.83 478.48) rotate(-45.04)"/><rect class="cls-2" x="593.02" y="194.96" width="1.82" height="6.97" transform="translate(873.92 758.57) rotate(-135.04)"/><rect class="cls-2" x="605.97" y="194.95" width="1.82" height="6.97" transform="translate(37.62 487.63) rotate(-45.04)"/><rect class="cls-2" x="605.97" y="194.95" width="1.82" height="6.97" transform="translate(896.06 767.69) rotate(-135.04)"/><rect class="cls-2" x="554.12" y="131.24" width="1.82" height="6.97" transform="translate(67.49 432.24) rotate(-45.04)"/><rect class="cls-2" x="554.12" y="131.24" width="1.82" height="6.97" transform="translate(852.54 622.26) rotate(-135.04)"/><rect class="cls-2" x="567.07" y="131.23" width="1.82" height="6.97" transform="translate(71.31 441.43) rotate(-45.04)"/><rect class="cls-2" x="567.07" y="131.23" width="1.82" height="6.97" transform="translate(874.65 631.41) rotate(-135.04)"/><rect class="cls-2" x="580.02" y="131.23" width="1.82" height="6.97" transform="translate(75.1 450.57) rotate(-45.04)"/><rect class="cls-2" x="580.02" y="131.23" width="1.82" height="6.97" transform="translate(896.79 640.54) rotate(-135.04)"/><rect class="cls-2" x="592.97" y="131.22" width="1.82" height="6.97" transform="translate(78.91 459.73) rotate(-45.04)"/><rect class="cls-2" x="592.97" y="131.22" width="1.82" height="6.97" transform="translate(918.91 649.67) rotate(-135.04)"/><rect class="cls-2" x="605.93" y="131.21" width="1.82" height="6.97" transform="translate(82.72 468.89) rotate(-45.04)"/><rect class="cls-2" x="605.93" y="131.21" width="1.82" height="6.97" transform="translate(941.04 658.81) rotate(-135.04)"/><rect class="cls-2" x="554.12" y="144.27" width="1.82" height="6.97" transform="translate(58.28 436.07) rotate(-45.04)"/><rect class="cls-2" x="554.12" y="144.27" width="1.82" height="6.97" transform="translate(843.35 644.51) rotate(-135.04)"/><rect class="cls-2" x="567.08" y="144.26" width="1.82" height="6.97" transform="translate(62.08 445.24) rotate(-45.04)"/><rect class="cls-2" x="567.08" y="144.26" width="1.82" height="6.97" transform="translate(865.47 653.65) rotate(-135.04)"/><rect class="cls-2" x="580.03" y="144.25" width="1.82" height="6.97" transform="translate(65.9 454.42) rotate(-45.04)"/><rect class="cls-2" x="580.03" y="144.25" width="1.82" height="6.97" transform="translate(887.58 662.8) rotate(-135.04)"/><rect class="cls-2" x="592.98" y="144.25" width="1.82" height="6.97" transform="translate(69.68 463.54) rotate(-45.04)"/><rect class="cls-2" x="592.98" y="144.25" width="1.82" height="6.97" transform="translate(909.74 671.91) rotate(-135.04)"/><rect class="cls-2" x="605.94" y="144.24" width="1.82" height="6.97" transform="translate(73.5 472.72) rotate(-45.04)"/><rect class="cls-2" x="605.94" y="144.24" width="1.82" height="6.97" transform="translate(931.87 681.05) rotate(-135.04)"/><rect class="cls-2" x="554.13" y="156.39" width="1.82" height="6.97" transform="translate(49.7 439.63) rotate(-45.04)"/><rect class="cls-2" x="554.13" y="156.39" width="1.82" height="6.97" transform="translate(834.8 665.21) rotate(-135.04)"/><rect class="cls-2" x="567.08" y="156.38" width="1.82" height="6.97" transform="translate(53.51 448.8) rotate(-45.04)"/><rect class="cls-2" x="567.08" y="156.38" width="1.82" height="6.97" transform="translate(856.92 674.35) rotate(-135.04)"/><rect class="cls-2" x="580.04" y="156.37" width="1.82" height="6.97" transform="translate(57.32 457.96) rotate(-45.04)"/><rect class="cls-2" x="580.04" y="156.37" width="1.82" height="6.97" transform="translate(879.05 683.49) rotate(-135.04)"/><rect class="cls-2" x="592.99" y="156.37" width="1.82" height="6.97" transform="translate(61.12 467.12) rotate(-45.04)"/><rect class="cls-2" x="592.99" y="156.37" width="1.82" height="6.97" transform="translate(901.19 692.62) rotate(-135.04)"/><rect class="cls-2" x="605.94" y="156.36" width="1.82" height="6.97" transform="translate(64.93 476.28) rotate(-45.04)"/><rect class="cls-2" x="605.94" y="156.36" width="1.82" height="6.97" transform="translate(923.3 701.77) rotate(-135.04)"/></g><path class="cls-2" d="M316.51,447.05H225l45.76-79.25Zm-85.36-3.56h79.2l-39.6-68.58Z"/><rect class="cls-5" x="270.31" y="420.59" width="51.74" height="1" transform="translate(-6.1 4.36) rotate(-0.83)"/><rect class="cls-5" x="243.15" y="421.21" width="20.79" height="1" transform="translate(-6.11 3.73) rotate(-0.83)"/><rect class="cls-5" x="224.96" y="421.56" width="9.21" height="1" transform="translate(-6.12 3.39) rotate(-0.83)"/><rect class="cls-5" x="215.27" y="421.73" width="5.91" height="1" transform="translate(-6.18 3.25) rotate(-0.84)"/><rect class="cls-5" x="205.82" y="421.87" width="4.96" height="1" transform="translate(-6.13 3.08) rotate(-0.83)"/><rect class="cls-5" x="291.14" y="409.13" width="51.74" height="1" transform="translate(-5.93 4.66) rotate(-0.83)"/><rect class="cls-5" x="263.97" y="409.75" width="20.79" height="1" transform="translate(-5.94 4.04) rotate(-0.83)"/><rect class="cls-5" x="245.78" y="410.1" width="9.21" height="1" transform="translate(-5.95 3.69) rotate(-0.83)"/><rect class="cls-5" x="236.1" y="410.27" width="5.91" height="1" transform="translate(-6 3.55) rotate(-0.84)"/><rect class="cls-5" x="226.65" y="410.41" width="4.96" height="1" transform="translate(-5.96 3.38) rotate(-0.83)"/><path class="cls-2" d="M289,240.7a40.86,40.86,0,0,1-5.82-.4,41.61,41.61,0,1,1,5.82.4Zm-.11-79.83a38.12,38.12,0,1,0,5.26.36h0A39.19,39.19,0,0,0,288.87,160.87Z"/><path class="cls-6" d="M288.92,211.89a13.61,13.61,0,0,1-1.8-.12,12.91,12.91,0,1,1,1.8.12Zm0-24.67A11.79,11.79,0,1,0,296,208.4a11.78,11.78,0,0,0-5.49-21.06h0A11.28,11.28,0,0,0,288.88,187.22Z"/><rect class="cls-3" x="289.59" y="130.65" width="1.52" height="136.11" transform="translate(-42.4 313) rotate(-53.34)"/><path class="cls-2" d="M310.79,328.81a32.17,32.17,0,0,1-4.36-.3,31.2,31.2,0,1,1,4.36.3Zm-.08-59.89a28.74,28.74,0,1,0,4,.28h0A27.92,27.92,0,0,0,310.71,268.92Z"/><path class="cls-3" d="M310.78,321.67a24.15,24.15,0,1,1,14.51-4.89A24,24,0,0,1,310.78,321.67Zm-.07-46.22a22.1,22.1,0,1,0,3.05.21h0A22.44,22.44,0,0,0,310.71,275.45Z"/><path class="cls-2" d="M310.76,312.53a15,15,0,1,1,9-3A14.8,14.8,0,0,1,310.76,312.53Zm0-28.72a13.71,13.71,0,1,0,1.89.13h0A15.13,15.13,0,0,0,310.72,283.81Z"/><path class="cls-3" d="M310.74,304.53a6.33,6.33,0,0,1-1-.07,6.92,6.92,0,1,1,1,.07Zm0-13.4a6.4,6.4,0,0,0-6.33,5.52,6.4,6.4,0,0,0,10.2,6,6.41,6.41,0,0,0-3-11.45h0A6.65,6.65,0,0,0,310.72,291.13Z"/><rect class="cls-2" x="572.89" y="102.92" width="112.39" height="57.62"/><rect class="cls-3" x="683.49" y="124.57" width="3.05" height="11.7" transform="translate(1261.62 -261.73) rotate(135)"/><rect class="cls-3" x="683.49" y="124.57" width="3.05" height="11.7" transform="translate(292.85 -446.17) rotate(45)"/><rect class="cls-3" x="661.75" y="124.57" width="3.05" height="11.7" transform="translate(1224.5 -246.36) rotate(135)"/><rect class="cls-3" x="661.75" y="124.57" width="3.05" height="11.7" transform="translate(286.48 -430.8) rotate(45)"/><rect class="cls-3" x="640.01" y="124.57" width="3.05" height="11.7" transform="translate(1187.38 -231) rotate(135)"/><rect class="cls-3" x="640.01" y="124.57" width="3.05" height="11.7" transform="translate(280.12 -415.43) rotate(45)"/><rect class="cls-3" x="618.27" y="124.57" width="3.05" height="11.7" transform="translate(1150.28 -215.62) rotate(135)"/><rect class="cls-3" x="618.27" y="124.57" width="3.05" height="11.7" transform="translate(273.74 -400.05) rotate(45)"/><rect class="cls-3" x="596.53" y="124.57" width="3.05" height="11.7" transform="translate(1113.16 -200.24) rotate(135)"/><rect class="cls-3" x="596.53" y="124.57" width="3.05" height="11.7" transform="translate(267.38 -384.68) rotate(45)"/><rect class="cls-3" x="683.49" y="102.71" width="3.05" height="11.7" transform="translate(1246.16 -299.05) rotate(135)"/><rect class="cls-3" x="683.49" y="102.71" width="3.05" height="11.7" transform="translate(277.4 -452.58) rotate(45)"/><rect class="cls-3" x="661.75" y="102.71" width="3.05" height="11.7" transform="translate(1209.05 -283.68) rotate(135)"/><rect class="cls-3" x="661.75" y="102.71" width="3.05" height="11.7" transform="translate(271.03 -437.21) rotate(45)"/><rect class="cls-3" x="640.01" y="102.71" width="3.05" height="11.7" transform="translate(1171.93 -268.32) rotate(135)"/><rect class="cls-3" x="640.01" y="102.71" width="3.05" height="11.7" transform="translate(264.67 -421.85) rotate(45)"/><rect class="cls-3" x="618.27" y="102.71" width="3.05" height="11.7" transform="translate(1134.82 -252.93) rotate(135)"/><rect class="cls-3" x="618.27" y="102.71" width="3.05" height="11.7" transform="translate(258.29 -406.47) rotate(45)"/><rect class="cls-3" x="596.53" y="102.71" width="3.05" height="11.7" transform="translate(1097.71 -237.56) rotate(135)"/><rect class="cls-3" x="596.53" y="102.71" width="3.05" height="11.7" transform="translate(251.93 -391.09) rotate(45)"/><rect class="cls-3" x="683.49" y="82.36" width="3.05" height="11.7" transform="translate(1231.77 -333.79) rotate(135)"/><rect class="cls-3" x="683.49" y="82.36" width="3.05" height="11.7" transform="translate(263.01 -458.54) rotate(45)"/><rect class="cls-3" x="661.75" y="82.36" width="3.05" height="11.7" transform="translate(1194.66 -318.42) rotate(135)"/><rect class="cls-3" x="661.75" y="82.36" width="3.05" height="11.7" transform="translate(256.64 -443.17) rotate(45)"/><rect class="cls-3" x="640.01" y="82.36" width="3.05" height="11.7" transform="translate(1157.53 -303.06) rotate(135)"/><rect class="cls-3" x="640.01" y="82.36" width="3.05" height="11.7" transform="translate(250.29 -427.81) rotate(45)"/><rect class="cls-3" x="618.27" y="82.36" width="3.05" height="11.7" transform="translate(1120.43 -287.67) rotate(135)"/><rect class="cls-3" x="618.27" y="82.36" width="3.05" height="11.7" transform="translate(243.91 -412.42) rotate(45)"/><rect class="cls-3" x="596.53" y="82.36" width="3.05" height="11.7" transform="translate(1083.32 -272.3) rotate(135)"/><rect class="cls-3" x="596.53" y="82.36" width="3.05" height="11.7" transform="translate(237.54 -397.05) rotate(45)"/><path class="cls-2" d="M683.12,195.66v26.92l-15.24-13.72Z"/><path class="cls-2" d="M683.12,222.58v26.91l-15.24-13.71Z"/><path class="cls-2" d="M683.12,249.49v26.92L667.88,262.7Z"/><path class="cls-2" d="M231.58,382.55H201.29l15.43-17.15ZM204.71,381h23.53L216.7,367.7Z"/><path class="cls-2" d="M204.66,382.55H174.37L189.8,365.4ZM177.79,381h23.54L189.78,367.7Z"/><path class="cls-2" d="M177.75,382.55h-30.3l15.44-17.15ZM150.87,381h23.54L162.86,367.7Z"/><path class="cls-3" d="M379.38,99.66h-31.6l15.8-27.37ZM349.9,98.44h27.35L363.58,74.75Z"/><path class="cls-3" d="M0,317H31.61L15.8,344.41Zm29.48,1.23H2.13L15.8,342Z"/><path class="cls-2" d="M421.9,390.66a6,6,0,0,1-.73-.05,5.28,5.28,0,0,1-3.48-2,5.27,5.27,0,0,1,8.4-6.36,5.27,5.27,0,0,1-4.19,8.45Zm0-10.09a4.82,4.82,0,0,0-.66,9.59,4.82,4.82,0,0,0,1.32-9.54h0A4.89,4.89,0,0,0,421.89,380.57Z"/><path class="cls-3" d="M167,123.64a5.34,5.34,0,0,1-.89-.07,6.2,6.2,0,1,1,.89.07Zm0-12.25a5.85,5.85,0,0,0-4.66,9.38,5.86,5.86,0,0,0,8.19,1.14,5.85,5.85,0,0,0-2.72-10.46h0A5.52,5.52,0,0,0,167,111.39Z"/><path class="cls-3" d="M621.51,195.48a11.3,11.3,0,0,1-1.64-.11,11.75,11.75,0,1,1,1.64.11Zm0-22.42a10.71,10.71,0,0,0-8.53,17.17,10.71,10.71,0,1,0,10-17.07h0A10.52,10.52,0,0,0,621.47,173.06Z"/><path class="cls-3" d="M433.69,101.23a12.87,12.87,0,0,1-1.63-.11,11.72,11.72,0,1,1,1.63.11Zm0-22.43a10.85,10.85,0,1,0,1.48.11h0A10.64,10.64,0,0,0,433.66,78.8Z"/><path class="cls-3" d="M155.35,455.51a11.18,11.18,0,0,1-1.63-.12,11.52,11.52,0,1,1,1.63.12Zm0-22.43a10.68,10.68,0,1,0,1.48.1h0A10.62,10.62,0,0,0,155.32,433.08Z"/><rect class="cls-3" x="150.44" y="17.18" width="0.96" height="7.39" transform="translate(230.8 -108.86) rotate(113.74)"/><rect class="cls-3" x="150.47" y="17.18" width="0.9" height="7.39" transform="translate(21.18 -59) rotate(23.74)"/><rect class="cls-2" x="314.32" y="344.34" width="3.31" height="25.48" transform="translate(770.06 211.63) rotate(113.74)"/><rect class="cls-2" x="314.42" y="344.34" width="3.1" height="25.48" transform="translate(170.52 -97) rotate(23.74)"/><rect class="cls-2" x="646.4" y="17.28" width="3.31" height="25.48" transform="translate(1291.88 109.77) rotate(-175.59)"/><rect class="cls-2" x="646.5" y="17.28" width="3.1" height="25.48" transform="translate(727.81 -613.81) rotate(94.41)"/><rect class="cls-2" x="57.85" y="221.44" width="3.31" height="25.48" transform="translate(100.83 472.24) rotate(-175.59)"/><rect class="cls-2" x="57.95" y="221.44" width="3.1" height="25.48" transform="matrix(-0.08, 1, -1, -0.08, 297.57, 192.85)"/><path class="cls-3" d="M138.75,312.47a3,3,0,1,1-3-3.05A3,3,0,0,1,138.75,312.47Z"/><path class="cls-3" d="M166.68,78.6a2.29,2.29,0,1,1-2.28-2.29A2.28,2.28,0,0,1,166.68,78.6Z"/><path class="cls-3" d="M581,188A4.07,4.07,0,1,1,577,184,4.06,4.06,0,0,1,581,188Z"/><path class="cls-3" d="M456.61,298a4.83,4.83,0,1,1-4.82-4.82A4.82,4.82,0,0,1,456.61,298Z"/><path class="cls-3" d="M479.47,334.56a10.41,10.41,0,1,1,10.41-10.41A10.42,10.42,0,0,1,479.47,334.56Zm0-19.3a8.89,8.89,0,1,0,8.88,8.89A8.9,8.9,0,0,0,479.47,315.26Z"/><path class="cls-3" d="M392.6,60.16a4.07,4.07,0,1,1-1-5.66A4.08,4.08,0,0,1,392.6,60.16Z"/><path class="cls-3" d="M389.27,66.93a9.11,9.11,0,1,1,9.11-9.11A9.12,9.12,0,0,1,389.27,66.93Zm0-16.89a7.78,7.78,0,1,0,7.78,7.78A7.79,7.79,0,0,0,389.27,50Z"/><circle class="cls-2" cx="171.8" cy="339.39" r="4.06" transform="translate(-201.08 264.12) rotate(-51.74)"/><path class="cls-3" d="M171.8,348.5a9.11,9.11,0,1,1,9.11-9.11A9.12,9.12,0,0,1,171.8,348.5Zm0-16.89a7.78,7.78,0,1,0,7.78,7.78A7.79,7.79,0,0,0,171.8,331.61Z"/><path class="cls-3" d="M177.86,205.31a3.05,3.05,0,1,1-3.05-3.05A3.06,3.06,0,0,1,177.86,205.31Z"/><path class="cls-3" d="M10.77,126.08a3,3,0,1,1-3-3A3,3,0,0,1,10.77,126.08Z"/><circle class="cls-3" cx="7.98" cy="429.53" r="7.87"/><path class="cls-3" d="M536.24,346.49h31.61L552,373.86Zm29.48,1.23H538.37L552,371.41Z"/><polygon class="cls-2" points="531.16 358.4 535.78 366.41 540.41 374.43 531.16 374.43 521.91 374.43 526.53 366.41 531.16 358.4"/><polygon class="cls-2" points="355.87 127.74 351.24 119.73 346.62 111.72 355.87 111.72 365.12 111.72 360.5 119.73 355.87 127.74"/><polygon class="cls-2" points="15.74 326.46 11.11 318.45 6.49 310.44 15.74 310.44 24.99 310.44 20.37 318.45 15.74 326.46"/><polygon class="cls-2" points="15.74 380.8 11.11 372.79 6.49 364.78 15.74 364.78 24.99 364.78 20.37 372.79 15.74 380.8"/><rect class="cls-2" x="473.37" y="434.86" width="69.58" height="5.59"/><rect class="cls-3" x="473.37" y="424.2" width="69.58" height="5.59"/><rect class="cls-2" x="258.86" y="98.91" width="69.58" height="5.59" transform="translate(191.94 395.35) rotate(-90)"/><rect class="cls-3" x="248.2" y="98.91" width="69.58" height="5.59" transform="translate(181.28 384.69) rotate(-90)"/><path class="cls-3" d="M401,292.91H384.75V276.66H401Zm-14.72-1.52h13.2v-13.2h-13.2Z"/><path class="cls-2" d="M401.26,317.55H385V301.29h16.25ZM386.53,316h13.2v-13.2h-13.2Z"/><path class="cls-3" d="M401.26,341.92H385V325.67h16.25Zm-14.73-1.52h13.2V327.19h-13.2Z"/><path class="cls-2" d="M401.26,366.3H385V350.05h16.25Zm-14.73-1.52h13.2V351.57h-13.2Z"/><path class="cls-3" d="M422.21,21.71V33.27H410.65V21.71Zm-1.09,10.47V22.79h-9.38v9.39Z"/><path class="cls-2" d="M439.72,21.53V33.09H428.17V21.53ZM438.64,32V22.61h-9.39V32Z"/><path class="cls-3" d="M457.06,21.53V33.09H445.5V21.53ZM456,32V22.61h-9.39V32Z"/><path class="cls-2" d="M474.39,21.53V33.09H462.83V21.53ZM473.31,32V22.61h-9.39V32Z"/><rect class="cls-3" x="425.41" y="125.36" width="2.6" height="6.5"/><rect class="cls-3" x="425.41" y="125.36" width="2.6" height="6.5"/><rect class="cls-3" x="425.41" y="232.62" width="2.6" height="6.5"/><rect class="cls-3" x="369.83" y="180.94" width="6.5" height="2.6"/><rect class="cls-3" x="369.83" y="180.94" width="6.5" height="2.6"/><rect class="cls-3" x="477.09" y="180.94" width="6.5" height="2.6"/><rect class="cls-3" x="387.49" y="141.06" width="2.6" height="6.5" transform="translate(11.84 317.2) rotate(-45)"/><rect class="cls-3" x="387.49" y="141.06" width="2.6" height="6.5" transform="translate(11.84 317.2) rotate(-45)"/><rect class="cls-3" x="463.33" y="216.91" width="2.6" height="6.5" transform="translate(-19.58 393.05) rotate(-45)"/><rect class="cls-3" x="385.54" y="218.86" width="6.5" height="2.6" transform="translate(-41.79 339.46) rotate(-45.01)"/><rect class="cls-3" x="385.54" y="218.86" width="6.5" height="2.6" transform="translate(-41.79 339.46) rotate(-45.01)"/><rect class="cls-3" x="461.38" y="143.01" width="6.5" height="2.6" transform="translate(34.07 370.87) rotate(-45.01)"/><rect class="cls-3" x="413.19" y="126.77" width="2.6" height="6.5" transform="translate(-18.72 97.87) rotate(-13.17)"/><rect class="cls-3" x="413.19" y="126.77" width="2.6" height="6.5" transform="translate(-18.72 97.87) rotate(-13.17)"/><rect class="cls-3" x="437.63" y="231.2" width="2.6" height="6.5" transform="translate(-41.88 106.19) rotate(-13.17)"/><rect class="cls-3" x="371.24" y="193.16" width="6.5" height="2.6" transform="translate(-34.49 90.55) rotate(-13.19)"/><rect class="cls-3" x="371.24" y="193.16" width="6.5" height="2.6" transform="translate(-34.49 90.55) rotate(-13.19)"/><rect class="cls-3" x="475.68" y="168.71" width="6.5" height="2.6" transform="translate(-26.15 113.72) rotate(-13.18)"/><rect class="cls-3" x="379.84" y="150.71" width="2.6" height="6.5" transform="matrix(0.53, -0.85, 0.85, 0.53, 49.35, 396.62)"/><rect class="cls-3" x="379.84" y="150.71" width="2.6" height="6.5" transform="matrix(0.53, -0.85, 0.85, 0.53, 49.35, 396.62)"/><rect class="cls-3" x="470.98" y="207.27" width="2.6" height="6.5" transform="translate(44.37 500.79) rotate(-58.18)"/><rect class="cls-3" x="395.18" y="226.5" width="6.5" height="2.6" transform="matrix(0.53, -0.85, 0.85, 0.53, -5.26, 446.15)"/><rect class="cls-3" x="395.18" y="226.5" width="6.5" height="2.6" transform="matrix(0.53, -0.85, 0.85, 0.53, -5.26, 446.15)"/><rect class="cls-3" x="451.74" y="135.37" width="6.5" height="2.6" transform="translate(98.91 451.15) rotate(-58.17)"/><rect class="cls-3" x="405.63" y="129.14" width="2.6" height="6.5" transform="translate(-20.14 159.44) rotate(-21.65)"/><rect class="cls-3" x="405.63" y="129.14" width="2.6" height="6.5" transform="translate(-20.14 159.44) rotate(-21.65)"/><rect class="cls-3" x="445.19" y="228.83" width="2.6" height="6.5" transform="translate(-54.12 181.06) rotate(-21.65)"/><rect class="cls-3" x="373.61" y="200.72" width="6.5" height="2.6" transform="translate(-47.94 153.27) rotate(-21.65)"/><rect class="cls-3" x="373.61" y="200.72" width="6.5" height="2.6" transform="translate(-47.94 153.27) rotate(-21.65)"/><rect class="cls-3" x="473.31" y="161.15" width="6.5" height="2.6" transform="translate(-26.32 187.26) rotate(-21.65)"/><rect class="cls-3" x="376.17" y="157.73" width="2.6" height="6.5" transform="translate(80.04 443.71) rotate(-66.64)"/><rect class="cls-3" x="376.17" y="157.73" width="2.6" height="6.5" transform="translate(80.04 443.71) rotate(-66.64)"/><rect class="cls-3" x="474.65" y="200.24" width="2.6" height="6.5" transform="translate(100.44 559.77) rotate(-66.64)"/><rect class="cls-3" x="402.2" y="230.17" width="6.5" height="2.6" transform="translate(32.25 511.99) rotate(-66.65)"/><rect class="cls-3" x="402.2" y="230.17" width="6.5" height="2.6" transform="translate(32.25 511.99) rotate(-66.65)"/><rect class="cls-3" x="444.72" y="131.7" width="6.5" height="2.6" transform="translate(148.33 491.58) rotate(-66.65)"/><rect class="cls-3" x="394.78" y="134.96" width="2.6" height="6.5" transform="translate(-8 250.9) rotate(-34.82)"/><rect class="cls-3" x="394.78" y="134.96" width="2.6" height="6.5" transform="translate(-8 250.9) rotate(-34.82)"/><rect class="cls-3" x="456.03" y="223.01" width="2.6" height="6.5" transform="translate(-47.31 301.64) rotate(-34.82)"/><rect class="cls-3" x="379.43" y="211.56" width="6.5" height="2.6" transform="translate(-53.02 256.65) rotate(-34.82)"/><rect class="cls-3" x="379.43" y="211.56" width="6.5" height="2.6" transform="translate(-53.02 256.65) rotate(-34.82)"/><rect class="cls-3" x="467.49" y="150.31" width="6.5" height="2.6" transform="matrix(0.82, -0.57, 0.57, 0.82, -2.28, 295.95)"/><rect class="cls-3" x="372.62" y="169.51" width="2.6" height="6.5" transform="translate(137.81 510.27) rotate(-79.82)"/><rect class="cls-3" x="372.62" y="169.51" width="2.6" height="6.5" transform="translate(137.81 510.27) rotate(-79.82)"/><rect class="cls-3" x="478.19" y="188.46" width="2.6" height="6.5" transform="translate(206.07 629.79) rotate(-79.82)"/><rect class="cls-3" x="413.98" y="233.72" width="6.5" height="2.6" transform="matrix(0.18, -0.98, 0.98, 0.18, 112.2, 604.18)"/><rect class="cls-3" x="413.98" y="233.72" width="6.5" height="2.6" transform="matrix(0.18, -0.98, 0.98, 0.18, 112.2, 604.18)"/><rect class="cls-3" x="432.94" y="128.15" width="6.5" height="2.6" transform="translate(231.73 535.92) rotate(-79.83)"/></g></g></svg>